<svg version="1.1" id="Capa_1" xmlns="http://www.w3.org/2000/svg" xmlns:xlink="http://www.w3.org/1999/xlink" x="0px" y="0px" viewBox="0 0 510 510" style="enable-background:new 0 0 510 510;" xml:space="preserve">
<g>
	<g>
		<path style="fill:#FFFFFF;" d="M87.126,222.229V40.661C87.126,23.727,100.84,10,117.756,10h219.106&#10;&#9;&#9;&#9;c4.458,0,8.815,0.966,12.797,2.796c3.331,1.515,6.398,3.629,9.029,6.283l100.311,100.846c2.62,2.633,4.723,5.693,6.215,9.017&#10;&#9;&#9;&#9;c1.808,3.955,2.763,8.295,2.763,12.728v282.685c0,16.843-13.641,30.498-30.468,30.498H320.714l-172.969-41.491L87.126,222.229z"/>
		<path style="fill:#D2DCFD;" d="M320.71,454.85h67.37l-5.4-5.41c-4.68-4.68-5.67-11.86-2.57-17.71&#10;&#9;&#9;&#9;c5.89-11.09,10.76-22.8,14.5-35.01c1.93-6.33,7.71-10.7,14.34-10.7h22.74c8.26,0,14.96-6.69,14.96-14.96v-66.05&#10;&#9;&#9;&#9;c0-8.26-6.7-14.96-14.96-14.96h-22.74c-6.63,0-12.41-4.37-14.34-10.7c-3.74-12.21-8.61-23.92-14.5-35.01&#10;&#9;&#9;&#9;c-3.1-5.85-2.11-13.02,2.57-17.71l16.11-16.12c5.84-5.85,5.84-15.31,0-21.15l-46.64-46.7c-5.85-5.85-15.33-5.85-21.18,0&#10;&#9;&#9;&#9;l-16.07,16.09c-4.69,4.7-11.88,5.69-17.73,2.58c-11.07-5.89-22.76-10.76-34.95-14.49c-6.33-1.95-10.69-7.72-10.69-14.34v-22.8&#10;&#9;&#9;&#9;c0-8.26-6.7-14.96-14.96-14.96h-65.96c-8.26,0-14.96,6.7-14.96,14.96v22.8c0,6.62-4.37,12.39-10.69,14.34&#10;&#9;&#9;&#9;c-12.19,3.73-23.88,8.6-34.95,14.49c-5.86,3.11-13.04,2.12-17.73-2.58l-5.15-5.15v68.63l35.157,194.988L320.71,454.85z"/>
		<polygon style="fill:#D2DCFD;" points="349.659,12.796 349.659,128.942 465.215,128.942 &#9;&#9;"/>
		<path style="fill:#93B2F4;" d="M365.155,370.173v-63.796h-32.633c-3.235-13.145-8.417-25.523-15.234-36.803l23.078-23.101&#10;&#9;&#9;&#9;l-45.066-45.11l-23.079,23.101c-11.268-6.823-23.634-12.01-36.766-15.248v-32.665h-63.733v32.665&#10;&#9;&#9;&#9;c-13.132,3.238-25.498,8.425-36.766,15.248l-23.078-23.101l-45.066,45.11l23.078,23.101c-6.817,11.28-11.999,23.657-15.233,36.803&#10;&#9;&#9;&#9;H42.023v63.796h32.634c3.235,13.145,8.417,25.523,15.233,36.802l-23.078,23.101l45.066,45.11l23.078-23.101&#10;&#9;&#9;&#9;c11.268,6.823,23.634,12.01,36.766,15.249V500h63.733v-32.665c13.132-3.238,25.498-8.425,36.766-15.249l23.079,23.101&#10;&#9;&#9;&#9;l45.066-45.11l-23.078-23.101c6.817-11.28,11.999-23.657,15.234-36.802H365.155z M203.589,399.204&#10;&#9;&#9;&#9;c-33.617,0-60.869-27.279-60.869-60.929c0-33.65,27.252-60.929,60.869-60.929s60.869,27.279,60.869,60.929&#10;&#9;&#9;&#9;C264.458,371.926,237.206,399.204,203.589,399.204z"/>
	</g>
	<g>
		<path style="fill:none;stroke:#1C2E72;stroke-width:20;stroke-linecap:round;stroke-linejoin:round;stroke-miterlimit:10;" d="&#10;&#9;&#9;&#9;M87.126,222.229V40.661C87.126,23.727,100.84,10,117.756,10h219.106c4.458,0,8.815,0.966,12.797,2.796&#10;&#9;&#9;&#9;c3.331,1.515,6.398,3.629,9.029,6.283l100.311,100.846c2.62,2.633,4.723,5.693,6.215,9.017c1.808,3.955,2.763,8.295,2.763,12.728&#10;&#9;&#9;&#9;v282.685c0,16.843-13.641,30.498-30.468,30.498H320.714"/>
		
			<polyline style="fill:none;stroke:#1C2E72;stroke-width:20;stroke-linecap:round;stroke-linejoin:round;stroke-miterlimit:10;" points="&#10;&#9;&#9;&#9;349.659,12.796 349.659,128.942 465.215,128.942 &#9;&#9;"/>
		<path style="fill:none;stroke:#1C2E72;stroke-width:20;stroke-linecap:round;stroke-linejoin:round;stroke-miterlimit:10;" d="&#10;&#9;&#9;&#9;M365.155,370.173v-63.796h-32.633c-3.235-13.145-8.417-25.523-15.234-36.803l23.078-23.101l-45.066-45.11l-23.079,23.101&#10;&#9;&#9;&#9;c-11.268-6.823-23.634-12.01-36.766-15.248v-32.665h-63.733v32.665c-13.132,3.238-25.498,8.425-36.766,15.248l-23.078-23.101&#10;&#9;&#9;&#9;l-45.066,45.11l23.078,23.101c-6.817,11.28-11.999,23.657-15.233,36.803H42.023v63.796h32.634&#10;&#9;&#9;&#9;c3.235,13.145,8.417,25.523,15.233,36.802l-23.078,23.101l45.066,45.11l23.078-23.101c11.268,6.823,23.634,12.01,36.766,15.249&#10;&#9;&#9;&#9;V500h63.733v-32.665c13.132-3.238,25.498-8.425,36.766-15.249l23.079,23.101l45.066-45.11l-23.078-23.101&#10;&#9;&#9;&#9;c6.817-11.28,11.999-23.657,15.234-36.802H365.155z"/>
		
			<ellipse style="fill:none;stroke:#1C2E72;stroke-width:20;stroke-linecap:round;stroke-linejoin:round;stroke-miterlimit:10;" cx="203.589" cy="338.276" rx="60.869" ry="60.929"/>
	</g>
</g>
<g>
</g>
<g>
</g>
<g>
</g>
<g>
</g>
<g>
</g>
<g>
</g>
<g>
</g>
<g>
</g>
<g>
</g>
<g>
</g>
<g>
</g>
<g>
</g>
<g>
</g>
<g>
</g>
<g>
</g>
</svg>