<svg id="Layer_1" viewBox="0 0 512 512" xmlns="http://www.w3.org/2000/svg" data-name="Layer 1"><path d="m422.38 117.38c13.56-14.83 21.66-36.3 21.66-56.32 0-17.61-6.6-32.45-19.08-42.91-10.91-9.14-25.51-14.17-41.11-14.17s-30.2 5.03-41.11 14.17c-12.48 10.46-19.08 25.29-19.08 42.91 0 20.02 8.09 41.5 21.65 56.32-31.16 6.95-54.78 21.95-66.41 42.33-15.14-2.55-30.64-2.55-45.78 0-11.63-20.38-35.25-35.39-66.42-42.34 13.56-14.83 21.66-36.3 21.66-56.32 0-17.61-6.6-32.45-19.08-42.91-10.91-9.14-25.51-14.17-41.11-14.17s-30.2 5.03-41.11 14.17c-12.48 10.46-19.08 25.29-19.08 42.91 0 20.02 8.09 41.5 21.65 56.32-46.35 10.28-74.63 37.86-74.63 73.84v53.94c0 3.32 2.69 6.01 6.01 6.01h105.29c-13.6 40.91-7.39 87 18.62 123.17l-41.68 41.68c-2.19-1-4.59-1.54-7.08-1.54-4.59 0-8.89 1.79-12.1 5.01l-36.55 36.53c-6.64 6.69-6.64 17.54.01 24.19l22.79 22.79c3.23 3.23 7.53 5.01 12.11 5.01h.03c4.58 0 8.86-1.79 12.06-5.01l36.55-36.53c5.14-5.17 6.28-12.86 3.44-19.17l41.69-41.69c23.75 17.08 51.79 25.62 79.82 25.62 35.03 0 70.06-13.33 96.73-39.98 25.84-25.84 40.07-60.19 40.07-96.73 0-14.96-2.39-29.56-6.98-43.36h105.19c3.32 0 6.01-2.69 6.01-6.01v-53.94c0-35.99-28.28-63.57-74.64-73.85zm-38.54-101.38c23.2 0 48.18 14.1 48.18 45.06 0 14.5-5.15 30.38-13.77 42.47-9.25 12.97-21.47 20.27-34.42 20.54-27.57-.59-48.16-33.72-48.16-63.01 0-30.96 24.97-45.06 48.17-45.06zm-255.68 0c23.2 0 48.17 14.1 48.17 45.06 0 14.5-5.15 30.38-13.77 42.47-9.25 12.97-21.47 20.27-34.42 20.54-27.57-.59-48.16-33.72-48.16-63.01 0-30.96 24.97-45.06 48.18-45.06zm-101.16 223.16v-47.93c0-38.19 37.88-57.9 74.15-63.83 7.92 5.3 16.98 8.52 26.88 8.7h.11s.07 0 .11 0c9.91-.18 18.97-3.4 26.89-8.7 30.44 4.94 53.76 17.48 65.51 35.02-22.5 5.98-43.77 17.77-61.39 35.39-12.28 12.28-21.73 26.34-28.35 41.35zm95.53 218.84-36.55 36.53c-.94.95-2.21 1.48-3.57 1.48-1.37 0-2.65-.53-3.61-1.49l-22.79-22.79c-1.98-1.98-1.97-5.22 0-7.2l36.55-36.53c.95-.95 2.22-1.48 3.59-1.48s2.64.52 3.61 1.5l22.77 22.75c1.99 2 1.99 5.26.02 7.25zm4.24-19.98-14.29-14.27 39.9-39.9c2.19 2.53 4.48 5.01 6.88 7.41s4.87 4.68 7.4 6.87zm217.45-55.25c-24.33 24.32-56.28 36.47-88.23 36.47s-63.91-12.16-88.23-36.47c-48.65-48.65-48.65-127.81 0-176.46 24.33-24.33 56.27-36.49 88.23-36.49s63.91 12.17 88.23 36.49c23.57 23.57 36.55 54.9 36.55 88.23s-12.98 64.66-36.55 88.23zm140.77-143.6h-103.83c-6.74-15.22-16.31-29.23-28.44-41.35-17.62-17.62-38.88-29.41-61.39-35.39 11.76-17.54 35.07-30.08 65.5-35.02 7.92 5.3 16.98 8.51 26.87 8.69h.11s.07 0 .11 0c9.91-.18 18.97-3.4 26.9-8.7 36.27 5.93 74.16 25.65 74.16 63.83v47.93zm-304.81-20.44c-41.79 41.79-41.79 109.8 0 151.62 20.25 20.25 47.17 31.4 75.81 31.4s55.56-11.15 75.81-31.4c41.79-41.82 41.79-109.83 0-151.62-41.8-41.8-109.82-41.8-151.62 0zm143.12 143.12c-17.98 17.98-41.88 27.88-67.31 27.88s-49.33-9.9-67.31-27.87c-37.1-37.13-37.1-97.52 0-134.62 18.56-18.56 42.93-27.84 67.31-27.84s48.75 9.28 67.31 27.84c37.1 37.1 37.1 97.5 0 134.62zm-99.7-60.52h-24.12c-3.32 0-6.01 2.69-6.01 6.01v46.77c0 3.32 2.69 6.01 6.01 6.01h24.12c3.32 0 6.01-2.69 6.01-6.01v-46.77c0-3.32-2.69-6.01-6.01-6.01zm-6.01 46.77h-12.1v-34.75h12.1zm51.14-68h-24.12c-3.32 0-6.01 2.69-6.01 6.01v68c0 3.32 2.69 6.01 6.01 6.01h24.12c3.32 0 6.01-2.69 6.01-6.01v-68c0-3.32-2.69-6.01-6.01-6.01zm-6.01 68h-12.1v-55.98h12.1zm51.14-85.49h-24.12c-3.32 0-6.01 2.69-6.01 6.01v85.49c0 3.32 2.69 6.01 6.01 6.01h24.12c3.32 0 6.01-2.69 6.01-6.01v-85.49c0-3.32-2.69-6.01-6.01-6.01zm-6.01 85.49h-12.1v-73.47h12.1zm-115.32-71.65c-1.21-3.09.31-6.58 3.4-7.79l91.22-35.75-4.17-1.59c-3.1-1.18-4.65-4.66-3.47-7.76s4.66-4.65 7.76-3.47l17.52 6.69c1.49.57 2.69 1.71 3.34 3.17s.69 3.11.12 4.6l-6.72 17.49c-.92 2.39-3.2 3.86-5.61 3.86-.72 0-1.44-.13-2.15-.4-3.1-1.19-4.65-4.67-3.46-7.76l1.42-3.7-91.42 35.83c-.72.28-1.46.42-2.19.42-2.4 0-4.67-1.45-5.6-3.82z"/></svg>