<svg id="Layer_1" height="512" viewBox="0 0 512 512" width="512" xmlns="http://www.w3.org/2000/svg" data-name="Layer 1"><g fill-rule="evenodd"><g><path d="m339.139 411.187c3.107-41.413 37.963-74.336 80.136-74.336s77.029 32.923 80.136 74.336c.245 3.272-2.309 6.025-5.59 6.025h-149.091c-3.281 0-5.836-2.753-5.591-6.025z" fill="#ffda2d"/><path d="m397.695 339.818c6.874-1.929 14.112-2.967 21.58-2.967 42.173 0 77.029 32.923 80.136 74.335.246 3.272-2.309 6.025-5.59 6.025h-17.238c.481-.904.72-1.955.637-3.066-3.092-41.212-37.627-74.011-79.525-74.328z" fill="#ffc700"/><path d="m419.275 332.658c23.922 0 43.433-19.511 43.433-43.433s-19.511-43.433-43.433-43.433-43.433 19.511-43.433 43.433 19.511 43.433 43.433 43.433z" fill="#ffd6bd"/><path d="m442.42 252.469c12.19 7.692 20.288 21.277 20.288 36.756 0 23.987-19.446 43.433-43.433 43.433-15.479 0-29.065-8.099-36.757-20.288 6.701 4.228 14.637 6.677 23.146 6.677 23.987 0 43.433-19.446 43.433-43.433 0-8.508-2.449-16.444-6.677-23.145z" fill="#f9c6aa"/></g><g><path d="m175.864 496.977c3.107-41.413 37.963-74.336 80.136-74.336s77.029 32.923 80.136 74.336c.246 3.272-2.309 6.025-5.59 6.025h-149.091c-3.281 0-5.836-2.753-5.591-6.025z" fill="#fc685b"/><path d="m234.42 425.608c6.874-1.93 14.112-2.967 21.58-2.967 42.173 0 77.029 32.923 80.136 74.335.246 3.272-2.309 6.025-5.59 6.025h-17.238c.481-.904.721-1.955.637-3.066-3.091-41.212-37.627-74.011-79.525-74.328z" fill="#fb4737"/><path d="m256 418.448c23.923 0 43.434-19.511 43.434-43.433s-19.511-43.433-43.434-43.433-43.433 19.511-43.433 43.433 19.511 43.433 43.433 43.433z" fill="#ffd6bd"/><path d="m279.145 338.259c12.19 7.692 20.289 21.277 20.289 36.756 0 23.987-19.446 43.433-43.433 43.433-15.479 0-29.065-8.099-36.757-20.288 6.701 4.228 14.637 6.677 23.146 6.677 23.987 0 43.433-19.446 43.433-43.433 0-8.508-2.449-16.444-6.677-23.145z" fill="#f9c6aa"/></g><g><path d="m12.589 411.187c3.107-41.413 37.963-74.336 80.136-74.336s77.029 32.923 80.136 74.336c.246 3.272-2.309 6.025-5.59 6.025h-149.092c-3.281 0-5.836-2.753-5.591-6.025z" fill="#64b5f6"/><path d="m71.145 339.818c6.874-1.929 14.112-2.967 21.58-2.967 42.173 0 77.029 32.923 80.136 74.335.246 3.272-2.309 6.025-5.59 6.025h-17.238c.481-.904.721-1.955.637-3.066-3.091-41.212-37.627-74.011-79.525-74.328z" fill="#42a5f5"/><path d="m92.725 332.658c23.923 0 43.434-19.511 43.434-43.433s-19.511-43.433-43.434-43.433-43.433 19.511-43.433 43.433 19.511 43.433 43.433 43.433z" fill="#ffd6bd"/><path d="m115.869 252.469c12.19 7.692 20.288 21.277 20.288 36.756 0 23.987-19.446 43.433-43.433 43.433-15.479 0-29.065-8.099-36.757-20.288 6.701 4.228 14.637 6.677 23.146 6.677 23.987 0 43.433-19.446 43.433-43.433 0-8.508-2.449-16.444-6.677-23.145z" fill="#f9c6aa"/></g><g><path d="m370.025 44.662c-85.923-47.551-142.127-47.552-228.05 0v107.477c0 32.101 13.277 58 39.344 76.735l74.681 53.675 74.678-53.674c26.068-18.736 39.347-44.633 39.347-76.735z" fill="#72d561"/><path d="m370.025 44.662c-45.987-25.45-83.461-37.273-121.535-35.481 33.064 1.557 66.579 13.379 106.515 35.481v107.477c0 32.103-13.279 57.999-39.347 76.735l-67.168 48.277 7.51 5.398 74.678-53.674c26.068-18.736 39.347-44.632 39.347-76.735z" fill="#57ca5a"/><path d="m345.124 56.928c-66.417-33.077-111.831-33.077-178.248 0v96.187c0 23.629 9.004 41.196 28.192 54.987l60.932 43.793 60.928-43.792c19.189-13.792 28.197-31.357 28.197-54.988v-96.187z" fill="#3cbe52"/><path d="m263.838 32.337c-30.619-1.689-60.652 6.507-96.962 24.591v96.187c0 23.629 9.004 41.196 28.192 54.987l60.932 43.793 7.838-5.634-53.093-38.159c-19.188-13.791-28.192-31.358-28.192-54.987v-96.187c30.107-14.993 55.897-23.19 81.285-24.591z" fill="#30aa44"/><path d="m287.353 94.853c6.832-6.869 17.939-6.9 24.809-.069 6.87 6.832 6.9 17.939.069 24.809l-58.593 59.143c-6.786 6.824-17.789 6.898-24.669.204l-28.99-28.256c-6.945-6.756-7.099-17.863-.344-24.808 6.756-6.945 17.863-7.099 24.808-.344l16.541 16.125z" fill="#eff4f7"/><path d="m317.305 106.238c.268 4.796-1.422 9.682-5.075 13.355l-58.593 59.143c-6.786 6.824-17.789 6.898-24.669.204l-28.99-28.256c-6.945-6.756-7.099-17.863-.344-24.808.932-.958 1.946-1.786 3.021-2.485.349 4.053 2.101 8.004 5.246 11.063l28.99 28.256c6.88 6.695 17.883 6.62 24.669-.204l55.744-56.268z" fill="#dee8ee"/></g></g></svg>