<svg id="Layer_1" enable-background="new 0 0 512 512" viewBox="0 0 512 512" xmlns="http://www.w3.org/2000/svg"><g clip-rule="evenodd" fill-rule="evenodd"><path d="m407.628 48.244h-366.335v432.756h366.335c0-144.252 0-288.503 0-432.756z" fill="#eceff1"/><ellipse cx="394.183" cy="107.525" fill="#00e499" rx="76.524" ry="76.524" transform="matrix(.707 -.707 .707 .707 39.422 310.223)"/><path d="m270.017 321.32c28.757-16.603 64.374-10.552 86.197 12.611l8.908-5.143 16.206 28.069-8.908 5.143c9.149 30.48-3.419 64.35-32.177 80.954-28.758 16.603-64.374 10.552-86.196-12.611l-8.908 5.143-16.206-28.07 8.908-5.143c-9.15-30.479 3.418-64.35 32.176-80.953zm-6.57 66.17 67.159-38.774c-13.073-9.956-31.364-11.695-46.484-2.965-15.121 8.73-22.761 25.44-20.675 41.739zm83.365-10.705-67.159 38.774c13.073 9.956 31.363 11.695 46.484 2.964 15.121-8.729 22.761-25.439 20.675-41.738z" fill="#fd4755"/><path d="m369.163 369.659-17.091 9.861c1.002 17.648-7.951 34.397-23.44 43.34-7.328 4.228-15.438 6.321-23.52 6.321-8.99 0-17.938-2.589-25.72-7.693l-17.091 9.861c20.841 18.228 50.981 21.389 75.442 7.281 24.453-14.121 36.782-41.799 31.42-68.971zm-79.712 46.023 52.555-30.351c-1.011 11.898-7.731 22.719-18.374 28.871-10.638 6.134-23.37 6.537-34.181 1.48zm85.045-60.655-127.533 73.63-11.2-19.408 127.528-73.63zm-53.692-6.429-52.55 30.351c1.011-11.898 7.73-22.719 18.369-28.871 10.638-6.139 23.369-6.537 34.181-1.48zm-79.712 46.023c-5.357-27.162 6.972-54.854 31.423-68.971 24.461-14.122 54.601-10.952 75.437 7.281l-17.076 9.856c-14.791-9.688-33.774-10.311-49.254-1.367-15.489 8.939-24.437 25.692-23.44 43.34zm144.562-40.263c1.381 2.393.562 5.455-1.831 6.831l-5.581 3.221c7.913 32.388-6.298 66.021-35.497 82.878-11.842 6.832-24.84 10.161-37.721 10.161-18.879 0-37.492-7.15-51.81-20.85l-5.581 3.222c-.777.449-1.639.67-2.486.67-1.732 0-3.413-.899-4.341-2.5l-16.201-28.071c-.67-1.147-.852-2.51-.501-3.788.342-1.292 1.18-2.379 2.332-3.043l5.577-3.217c-7.908-32.393 6.302-66.021 35.502-82.882 29.199-16.861 65.44-12.347 89.522 10.69l5.586-3.217c1.143-.66 2.51-.843 3.793-.501 1.278.342 2.369 1.18 3.039 2.332zm38.63-272.789-41.308 41.312-18.893-18.893c-1.948-1.948-5.118-1.948-7.07 0-1.948 1.952-1.948 5.122 0 7.07l22.424 22.419c.979.983 2.257 1.47 3.54 1.47 1.278 0 2.556-.487 3.526-1.47l44.852-44.838c1.948-1.952 1.948-5.123 0-7.07-1.949-1.948-5.119-1.948-7.071 0zm41.42 25.958c0 39.444-32.079 71.523-71.518 71.523-39.44 0-71.532-32.079-71.532-71.523 0-39.44 32.093-71.527 71.532-71.527s71.518 32.088 71.518 71.527zm-63.081 81.085v287.388h-356.327v-422.75h287.126c-12.9 14.421-20.766 33.451-20.766 54.278 0 5.614.567 11.093 1.658 16.384h-134.978c-2.763 0-5.001 2.238-5.001 5.001 0 2.767 2.238 4.996 5.001 4.996h137.727c10.994 32.041 41.401 55.139 77.123 55.139 2.846-.001 5.67-.151 8.437-.436zm10.002-1.691v294.08c0 2.758-2.243 5.001-5.001 5.001h-366.329c-2.762 0-5.001-2.243-5.001-5.001v-432.752c0-2.758 2.238-5.001 5.001-5.001h302.826c13.832-10.788 31.203-17.25 50.064-17.25 44.951 0 81.52 36.569 81.52 81.529 0 38.611-26.979 71.013-63.08 79.394zm-67.801 91.788c0-2.763-2.238-5.001-5.001-5.001h-160.487c-2.763 0-5.001 2.238-5.001 5.001 0 2.758 2.238 5.001 5.001 5.001h160.488c2.762 0 5-2.243 5-5.001zm-214.512-20.077-19.216 19.216-7.843-7.838c-1.957-1.962-5.118-1.962-7.079 0-1.948 1.948-1.948 5.118 0 7.07l11.378 11.378c.983.969 2.262 1.461 3.545 1.461 1.278 0 2.557-.492 3.53-1.461l22.756-22.761c1.952-1.948 1.952-5.118 0-7.066-1.949-1.952-5.119-1.952-7.071.001zm0-74.904-19.216 19.221-7.843-7.838c-1.957-1.952-5.118-1.952-7.079 0-1.948 1.948-1.948 5.118 0 7.07l11.378 11.378c.983.979 2.262 1.461 3.545 1.461 1.278 0 2.557-.482 3.53-1.461l22.756-22.761c1.952-1.948 1.952-5.108 0-7.07-1.949-1.948-5.119-1.948-7.071 0zm49.024 25.083h160.488c2.762 0 5.001-2.243 5.001-5.001 0-2.763-2.238-5.001-5.001-5.001h-160.488c-2.763 0-5.001 2.238-5.001 5.001 0 2.758 2.238 5.001 5.001 5.001zm-41.954-99.973c-1.948-1.948-5.118-1.948-7.07 0l-19.216 19.221-7.843-7.838c-1.957-1.962-5.118-1.962-7.079 0-1.948 1.948-1.948 5.109 0 7.071l11.378 11.369c.983.979 2.262 1.47 3.545 1.47 1.278 0 2.557-.492 3.53-1.47l22.756-22.751c1.952-1.949 1.952-5.119-.001-7.072z"/></g></svg>