<svg id="Layer_1" viewBox="0 0 512 512" xmlns="http://www.w3.org/2000/svg" data-name="Layer 1"><g><path d="m99.171 49.822h317.053c10.414 0 18.868 8.455 18.868 18.868v378.821c0 10.414-8.455 18.869-18.869 18.869h-317.052c-10.414 0-18.869-8.455-18.869-18.869v-378.821c0-10.414 8.455-18.868 18.868-18.868z" fill="#eff4f7"/><g fill-rule="evenodd"><path d="m416.223 49.822c10.393 0 18.869 8.476 18.869 18.869v378.821c0 7.961-4.973 14.797-11.972 17.561.844-2.138 1.308-4.465 1.308-6.896v-378.823c0-10.393-8.476-18.869-18.869-18.869h-317.052c-2.432 0-4.758.464-6.896 1.308 2.763-6.999 9.599-11.972 17.561-11.972h317.053z" fill="#dee8ee"/><path d="m192.394 49.822h47.302l-18.82-26.61c-4.231-5.982.029-14.212 7.355-14.212h58.93c7.327 0 11.586 8.23 7.356 14.212l-18.82 26.61h47.302c2.373 0 4.121 2.166 3.62 4.485l-6.396 29.6c-1.117 5.171-5.569 8.764-10.859 8.764h-103.334c-5.291 0-9.743-3.593-10.86-8.764l-6.396-29.6c-.501-2.32 1.247-4.485 3.62-4.485z" fill="#da8c36"/><path d="m192.394 49.822h29.096l7.543 10.664h-38.923l-1.335-6.179c-.501-2.32 1.247-4.485 3.62-4.485zm26.96-30.157h57.144c7.327 0 11.586 8.23 7.356 14.212l-18.82 26.61h47.302c2.374 0 4.122 2.166 3.62 4.485l-5.982 27.682c5.02-.264 9.176-3.776 10.25-8.747l6.396-29.6c.501-2.32-1.247-4.485-3.62-4.485h-47.302l18.82-26.61c4.23-5.981-.029-14.212-7.356-14.212h-58.93c-5.947 0-9.873 5.423-8.878 10.664z" fill="#cd7d25"/></g></g><g fill-rule="evenodd"><path d="m93.591 161.94c34.416 0 62.485-28.07 62.485-62.485s-28.069-62.485-62.485-62.485-62.485 28.07-62.485 62.485 28.069 62.485 62.485 62.485z" fill="#64b5f6"/><path d="m131.474 49.764c14.952 11.417 24.602 29.425 24.602 49.691 0 34.509-27.975 62.485-62.485 62.485-18.894 0-35.829-8.386-47.287-21.639 10.51 8.025 23.638 12.795 37.883 12.795 34.51 0 62.485-27.975 62.485-62.485 0-15.616-5.729-29.893-15.198-40.846z" fill="#42a5f5"/><path d="m111.012 76.73c3.654-3.674 9.594-3.691 13.268-.037s3.69 9.594.037 13.268l-31.92 32.22c-3.629 3.649-9.514 3.689-13.193.109l-16.225-15.814c-3.714-3.613-3.797-9.553-.184-13.267s9.553-3.797 13.267-.184l9.567 9.326z" fill="#eff4f7"/><path d="m111.012 76.73c3.654-3.674 9.594-3.691 13.268-.037 2.802 2.787 3.476 6.904 2.017 10.331-.46-1.082-1.132-2.094-2.017-2.974-3.674-3.654-9.614-3.637-13.268.037l-25.383 25.621-9.567-9.326c-3.714-3.613-9.654-3.531-13.267.184-.832.855-1.467 1.828-1.908 2.863-1.436-3.375-.81-7.427 1.908-10.221 3.613-3.714 9.553-3.797 13.267-.184l9.567 9.326 25.383-25.621z" fill="#e2e3e3"/></g><g><path d="m139.12 267.008h29.964c2.645 0 4.793 2.147 4.793 4.793v59.305c0 2.645-2.147 4.792-4.792 4.792h-29.964c-2.645 0-4.792-2.147-4.792-4.792v-59.305c0-2.645 2.147-4.792 4.792-4.792z" fill="#fc685b"/><path d="m139.12 267.008h29.964c2.64 0 4.793 2.153 4.793 4.792v59.305c0 2.64-2.153 4.792-4.793 4.792h-5.207v-54.097c0-2.64-2.153-4.792-4.793-4.792h-24.756v-5.208c0-2.64 2.153-4.792 4.792-4.792z" fill="#fb4737" fill-rule="evenodd"/><rect fill="#ffda2d" height="145.234" rx="4.792" width="39.549" x="203.391" y="190.664"/><path d="m208.184 190.664h29.964c2.64 0 4.792 2.153 4.792 4.792v135.649c0 2.64-2.153 4.792-4.792 4.792h-5.208v-130.442c0-2.64-2.153-4.792-4.793-4.792h-24.756v-5.208c0-2.64 2.153-4.792 4.792-4.792z" fill="#ffc700" fill-rule="evenodd"/><path d="m277.247 223.496h29.964c2.645 0 4.793 2.147 4.793 4.793v102.817c0 2.645-2.147 4.792-4.792 4.792h-29.964c-2.645 0-4.792-2.147-4.792-4.792v-102.818c0-2.645 2.147-4.792 4.792-4.792z" fill="#72d561"/><path d="m277.247 223.496h29.964c2.64 0 4.793 2.153 4.793 4.792v102.818c0 2.64-2.153 4.792-4.793 4.792h-5.208v-97.61c0-2.64-2.153-4.792-4.792-4.792h-24.756v-5.208c0-2.64 2.153-4.792 4.792-4.792z" fill="#42c345" fill-rule="evenodd"/><path d="m346.311 159.731h29.964c2.645 0 4.793 2.147 4.793 4.793v166.582c0 2.645-2.147 4.792-4.792 4.792h-29.964c-2.645 0-4.792-2.147-4.792-4.792v-166.583c0-2.645 2.147-4.792 4.792-4.792z" fill="#64b5f6"/><g fill-rule="evenodd"><path d="m346.311 159.731h29.964c2.64 0 4.793 2.153 4.793 4.792v166.583c0 2.64-2.153 4.792-4.793 4.792h-5.208v-161.375c0-2.64-2.153-4.792-4.792-4.792h-24.756v-5.208c0-2.64 2.153-4.792 4.792-4.792z" fill="#42a5f5"/><path d="m334.771 117.088c-4.401-.207-7.801-3.943-7.594-8.344s3.943-7.801 8.344-7.594l29.113 1.371c4.401.207 7.801 3.943 7.594 8.344-.023.494-.091.975-.199 1.439l-5.136 28.268c-.776 4.332-4.918 7.214-9.25 6.438s-7.214-4.918-6.437-9.25l1.159-6.381-54.73 50.531-.006-.007c-2.648 2.44-6.714 2.849-9.837.756l-62.858-42.123-64.519 83.886c-2.692 3.486-7.702 4.13-11.188 1.437-3.486-2.692-4.13-7.701-1.438-11.187l69.063-89.794c2.618-3.389 7.426-4.091 10.894-1.653l63.686 42.678 52.409-48.388-9.072-.427z" fill="#96a4af"/></g></g><g><g fill-rule="evenodd"><path d="m400.09 436.941 14.255-15.233-28.807-28.809-15.276 14.214z" fill="#96a4af"/><path d="m400.09 436.941 14.255-15.233-.155-.155-7.976 8.524-29.224-29.224-6.728 6.26z" fill="#8696a3"/><path d="m413 411.409-23.697 23.697c-.656.656-.656 1.726 0 2.381l60.134 60.133c7.172 7.172 18.908 7.171 26.079 0 7.171-7.171 7.172-18.907 0-26.079l-60.134-60.134c-.655-.655-1.725-.655-2.381 0z" fill="#ba7b62"/><path d="m393.769 430.641-4.466 4.466c-.656.656-.655 1.726 0 2.381l60.134 60.134c7.171 7.171 18.906 7.172 26.079 0 .763-.763 1.444-1.577 2.044-2.433-7.185 5.047-17.238 4.366-23.647-2.043l-60.134-60.133c-.652-.652-.655-1.715-.01-2.371z" fill="#a76b52"/><path d="m389.303 435.106c-.656.656-.655 1.726 0 2.381l15.605 15.605 26.079-26.079-15.605-15.605c-.655-.655-1.725-.655-2.381 0-7.899 7.899-15.798 15.798-23.697 23.697z" fill="#a76b52"/><path d="m389.303 435.106c-.656.656-.655 1.726 0 2.381l15.605 15.605 4.477-4.476-15.605-15.605c-.652-.652-.655-1.715-.01-2.371l-4.466 4.466z" fill="#915c44"/></g><circle cx="322.57" cy="344.675" fill="#465759" r="87.326" transform="matrix(.707 -.707 .707 .707 -149.244 329.044)"/><path d="m374.432 274.416c21.512 15.906 35.464 41.452 35.464 70.26 0 48.229-39.097 87.326-87.327 87.326-24.635 0-46.883-10.204-62.759-26.612 14.503 10.724 32.441 17.068 51.863 17.068 48.23 0 87.327-39.097 87.327-87.327 0-23.594-9.361-45-24.568-60.715z" fill="#3e4d4f" fill-rule="evenodd"/><path d="m322.57 410.579c36.298 0 65.903-29.605 65.903-65.903s-29.605-65.903-65.903-65.903-65.903 29.605-65.903 65.903 29.605 65.903 65.903 65.903z" fill="#e6f8ff" fill-rule="evenodd"/><path d="m322.57 278.772c20.342 0 38.528 9.219 50.618 23.703-11.432-9.541-26.145-15.285-42.2-15.285-36.397 0-65.903 29.505-65.903 65.903 0 16.055 5.744 30.768 15.285 42.2-14.485-12.089-23.703-30.276-23.703-50.618 0-36.397 29.506-65.903 65.903-65.903z" fill="#cbf0ff" fill-rule="evenodd"/></g><g fill-rule="evenodd"><path d="m363.128 396.622c-11.183 8.744-25.261 13.957-40.558 13.957s-29.373-5.212-40.557-13.956c6.423-16.124 22.214-27.598 40.558-27.598s34.134 11.474 40.557 27.597z" fill="#fc685b"/><path d="m363.128 396.622c-3.261 2.55-6.77 4.799-10.482 6.707 1.389-.926 2.741-1.902 4.053-2.928-6.423-16.124-22.214-27.597-40.557-27.597-6.677 0-13.015 1.522-18.688 4.233 7.114-5.041 15.784-8.012 25.117-8.012 18.343 0 34.134 11.474 40.557 27.597z" fill="#fb4737"/><path d="m322.571 319.589c-13.023 0-23.58 10.557-23.58 23.579s10.557 23.579 23.58 23.579 23.579-10.557 23.579-23.579-10.557-23.579-23.579-23.579z" fill="#ffd6bd"/><path d="m301.591 353.942c3.913 7.604 11.839 12.806 20.979 12.806 13.022 0 23.579-10.557 23.579-23.579 0-7.44-3.447-14.074-8.831-18.396 1.662 3.23 2.601 6.892 2.601 10.774 0 13.023-10.557 23.579-23.579 23.579-5.583 0-10.711-1.941-14.75-5.184z" fill="#f9c6aa"/></g></svg>