<svg height="512" viewBox="0 0 64 64" width="512" xmlns="http://www.w3.org/2000/svg"><g id="Icons"><g><path d="m47.707 36.293-15-15c-.391-.391-1.023-.391-1.414 0l-6 6c-.391.391-.391 1.023 0 1.414l15 15c.191.191.447.293.707.293.129 0 .259-.025.383-.076.374-.155.617-.52.617-.924v-5h5c.404 0 .77-.244.924-.617.155-.374.069-.804-.217-1.09z" fill="#0a5078"/><path d="m38.707 27.293-6-6c-.391-.391-1.023-.391-1.414 0l-15 15c-.286.286-.372.716-.217 1.09.154.373.52.617.924.617h5v5c0 .404.243.769.617.924.124.051.254.076.383.076.26 0 .516-.102.707-.293l15-15c.391-.391.391-1.023 0-1.414z" fill="#0a5078"/><g><g><path d="m41.95 30.95.287-.128-9.529-9.529c-.391-.391-1.023-.391-1.414 0l-9.529 9.529.287.128 1.534 3.449c.176.396.586.632 1.018.588l3.754-.392 2.588 1.876 1.054-1.057 1.056 1.056 2.588-1.876 3.754.393c.432.045.842-.192 1.018-.588z" fill="#00325a"/></g></g><path d="m47.81 19.413-2.215-3.057.392-3.754c.046-.431-.192-.842-.588-1.018l-3.449-1.534-1.534-3.449c-.176-.395-.591-.632-1.018-.588l-3.755.392-3.056-2.215c-.35-.254-.824-.254-1.174 0l-3.057 2.215-3.755-.393c-.426-.042-.841.193-1.018.588l-1.533 3.45-3.448 1.534c-.396.176-.634.586-.588 1.018l.392 3.754-2.215 3.057c-.254.35-.254.824 0 1.174l2.215 3.057-.392 3.754c-.046.431.192.842.588 1.018l3.448 1.534 1.534 3.449c.177.396.591.63 1.018.588l3.755-.392 3.057 2.215c.174.127.38.19.586.19s.412-.063.587-.19l3.057-2.215 3.755.393c.429.043.842-.192 1.018-.588l1.534-3.449 3.448-1.534c.396-.176.634-.586.588-1.018l-.392-3.754 2.215-3.057c.253-.351.253-.825 0-1.175z" fill="#c80a50"/><g><g><circle cx="32" cy="21" fill="#a00028" r="12"/></g></g><g><g><circle cx="32" cy="20" fill="#00a0c8" r="12"/></g></g><g><g><circle cx="32" cy="20" fill="#0082aa" r="10"/></g></g><g><g><path d="m30 27c-.512 0-1.023-.195-1.414-.586l-4-4c-.781-.781-.781-2.047 0-2.828s2.047-.781 2.828 0l2.586 2.585 6.586-6.585c.781-.781 2.047-.781 2.828 0s.781 2.047 0 2.828l-8 8c-.391.391-.902.586-1.414.586z" fill="#00648c"/></g></g><g><g><path d="m30 26c-.512 0-1.023-.195-1.414-.586l-4-4c-.781-.781-.781-2.047 0-2.828s2.047-.781 2.828 0l2.586 2.585 6.586-6.585c.781-.781 2.047-.781 2.828 0s.781 2.047 0 2.828l-8 8c-.391.391-.902.586-1.414.586z" fill="#f0f0f0"/></g></g><g><g><g><g><path d="m14 44h-8c-1.105 0-2 .895-2 2v12c0 1.105.895 2 2 2h8c1.105 0 2-.895 2-2v-12c0-1.105-.895-2-2-2z" fill="#00a0c8"/></g></g><g><g><circle cx="10" cy="55" fill="#0082aa" r="2"/></g></g><g><g><circle cx="10" cy="54" fill="#f0f0f0" r="2"/></g></g><g><g><path d="m51 43c-.828 0-1.578.336-2.121.879l-8.122 8.121h-3.757c1.657 0 3-1.343 3-3s-1.343-3-3-3h-5l-1.657-1.657c-1.5-1.5-3.535-2.343-5.657-2.343h-1.373c-2.122 0-4.157.843-5.657 2.343l-1.656 1.657v12h26c.829 0 1.579-.336 2.122-.879l8.999-8.999c.543-.543.879-1.293.879-2.122 0-1.657-1.343-3-3-3z" fill="#f0c8a0"/></g></g></g><g><g><path d="m28.5 52c-.276 0-.5.224-.5.5s.224.5.5.5h8.5c1.005 0 1.914-.385 2.618-1z" fill="#d2aa82"/></g></g></g></g></g></svg>