<svg id="Capa_1" enable-background="new 0 0 512 512" height="512" viewBox="0 0 512 512" width="512" xmlns="http://www.w3.org/2000/svg"><g><g><path d="m467.06 7.5h-272c-8.25 0-15 6.75-15 15v362l292 10 10-372c0-8.25-6.75-15-15-15z" fill="#e1dee2"/><path d="m462.06 37.5v15h-282v352h287c8.25 0 15-6.75 15-15v-367h-5c-8.25 0-15 6.75-15 15z" fill="#c5bec6"/><path d="m437.06 37.5h-272c-8.25 0-15 6.75-15 15v362l292 10 10-372c0-8.25-6.75-15-15-15z" fill="#faf8f8"/><path d="m432.06 67.5v339.5c0 4.142-3.358 7.5-7.5 7.5h-274.5v5c0 8.25 6.75 15 15 15h272c8.25 0 15-6.75 15-15v-367h-5c-8.25 0-15 6.75-15 15z" fill="#e1dee2"/><path d="m249.92 462.687c-2.074-.285-4.253-.44-6.548-.44h-168.22c-19.849 0-31.263 11.328-37.656 22.253l231.088 10c-.001 0-2.524-20.703-18.664-31.813z" fill="#d09180"/><path d="m288.583 504.5s-6.081-37.343-38.663-41.813c2.599 4.083 4.471 8.2 5.795 11.74 1.825 4.88-1.836 10.073-7.046 10.073h-211.174c-5.954 10.175-7.555 20-7.555 20z" fill="#b46e5a"/><path d="m383.335 479.201c2.517-4.36 6.196-20.818-2.354-25.333-23.194-11.869-80.362-39.743-80.363-39.744l-15 7.082v18.899c.001 0 52.724 35.572 74.601 49.724 8.185 5.147 20.599-6.268 23.116-10.628z" fill="#d09180"/><path d="m389.53 458.383c-1.498-.865-4.513-2.449-8.549-4.515.449 7.128-1.121 14.462-4.959 21.111-3.839 6.649-9.405 11.675-15.803 14.85 3.807 2.463 6.687 4.282 8.185 5.146 10.105 5.834 23.026 2.372 28.86-7.733s2.371-23.025-7.734-28.859z" fill="#b46e5a"/><path d="m300.618 414.124-58.937-34.027-15 7.572v18.409l58.937 34.027z" fill="#b46e5a"/><path d="m204.817 368.208h30v33.173h-30z" fill="#a65d4e" transform="matrix(.5 -.866 .866 .5 -223.333 382.763)"/><path d="m208.819 345.596s21.124 11.676 14.175 23.712l-15 25.981c-6.949 12.036-27.622-.42-27.622-.42l-17.485-42.944z" fill="#d09180"/><path d="m208.978 301.676-12.353-26.779-60.776 5.569c-7.522 13.028-7.522 34.135-15.044 47.163s-25.8 23.581-33.322 36.61l25.565 55.418 29.367-2.691z" fill="#d09180"/><path d="m208.978 301.676c-10.956 17.764-35.753 32.343-46.091 50.249s-10.565 46.671-20.471 65.041l31.409-2.878c7.522-13.028 7.522-34.135 15.044-47.163s25.8-23.581 33.322-36.61z" fill="#b46e5a"/><path d="m124.591 452.292c13.625 0 40.469-17.792 40.469-17.792l-103.174-44.38c-2.205 7.024-3.543 15.488-1.816 21.933 2.011 7.504 12.103 17.256 24.915 26.167 14.827 9.253 31.838 14.072 39.606 14.072z" fill="#d09180"/><path d="m120.105 446.713c-7.504 2.011-20.996-1.854-35.12-8.494 20.844 14.496 48.893 26.765 61.1 23.494 6.445-1.727 13.12-7.109 18.112-12.524v-15h-25.981c-4.991 5.415-11.667 10.798-18.111 12.524z" fill="#b46e5a"/><path d="m87.482 364.239c-5.052-2.917-11.569-1.394-14.43 3.866l-7.042 12.198c-1.394 2.414-2.893 5.894-4.124 9.817l76.33 44.069 30.813-10.671c2.917-5.052-6.261-15.812-20.168-23.842z" fill="#ebae9d"/><path d="m148.861 399.676c5.052 2.917 5.765 8.789 2.848 13.842l-7.042 12.198c-1.394 2.415-3.663 5.449-6.45 8.474l25.981 15c2.787-3.024 5.056-6.059 6.45-8.474l7.042-12.198c2.917-5.052 1.186-11.513-3.866-14.43z" fill="#d09180"/><path d="m230.659 268.577c6.813 11.8 4.826 43.943 4.826 43.943l-90.021-67.161c4.981-5.422 11.642-10.812 18.086-12.539 7.504-2.011 20.995 1.853 35.118 8.494 15.428 8.214 28.107 20.535 31.991 27.263z" fill="#d09180"/><path d="m223.584 267.481c-2.011-7.504-12.103-17.256-24.916-26.167 22.976 10.803 47.626 28.96 50.897 41.167 1.727 6.445.404 14.917-1.791 21.947l-12.99 7.5-12.99-22.5c2.194-7.03 3.517-15.502 1.79-21.947z" fill="#b46e5a"/><path d="m135.848 280.466c-5.052-2.917-6.992-9.322-3.866-14.43l7.042-12.198c1.394-2.414 3.658-5.452 6.439-8.48l76.33 44.069 6.165 32.02c-2.917 5.052-16.824 2.484-30.731-5.545z" fill="#ebae9d"/><path d="m197.227 315.903c5.052 2.917 10.494.598 13.411-4.455l7.042-12.198c1.394-2.414 2.888-5.897 4.113-9.823l25.981 15c-1.226 3.926-2.719 7.408-4.113 9.823l-7.042 12.198c-2.917 5.052-9.377 6.783-14.43 3.866z" fill="#d09180"/></g><g><path d="m482.06 85.498c-4.142 0-7.5 3.357-7.5 7.5v291.502c0 4.136-3.364 7.5-7.5 7.5h-7.5v-41.2c0-4.143-3.358-7.5-7.5-7.5s-7.5 3.357-7.5 7.5v68.7c0 4.136-3.364 7.5-7.5 7.5h-36.962c-4.142 0-7.5 3.357-7.5 7.5s3.358 7.5 7.5 7.5h36.962c12.407 0 22.5-10.094 22.5-22.5v-12.5h7.5c12.407 0 22.5-10.094 22.5-22.5v-291.502c0-4.143-3.358-7.5-7.5-7.5z"/><path d="m467.06 0h-272c-12.407 0-22.5 10.094-22.5 22.5v7.5h-7.5c-12.407 0-22.5 10.094-22.5 22.5v76.734c0 4.143 3.358 7.5 7.5 7.5s7.5-3.357 7.5-7.5v-76.734c0-4.136 3.364-7.5 7.5-7.5h272c4.136 0 7.5 3.364 7.5 7.5v268.3c0 4.143 3.358 7.5 7.5 7.5s7.5-3.357 7.5-7.5v-268.3c0-12.406-10.093-22.5-22.5-22.5h-249.5v-7.5c0-4.136 3.364-7.5 7.5-7.5h272c4.136 0 7.5 3.364 7.5 7.5v40.498c0 4.143 3.358 7.5 7.5 7.5s7.5-3.357 7.5-7.5v-40.498c0-12.406-10.093-22.5-22.5-22.5z"/><path d="m199.74 185.3h174.558c4.142 0 7.5-3.357 7.5-7.5s-3.358-7.5-7.5-7.5h-174.558c-4.142 0-7.5 3.357-7.5 7.5s3.358 7.5 7.5 7.5z"/><path d="m199.74 145.3h144.558c4.142 0 7.5-3.357 7.5-7.5s-3.358-7.5-7.5-7.5h-144.558c-4.142 0-7.5 3.357-7.5 7.5s3.358 7.5 7.5 7.5z"/><path d="m199.74 105.3h202.32c4.142 0 7.5-3.357 7.5-7.5s-3.358-7.5-7.5-7.5h-202.32c-4.142 0-7.5 3.357-7.5 7.5s3.358 7.5 7.5 7.5z"/><path d="m393.281 451.888c-9.455-5.458-75.206-37.59-87.496-43.588h31.949c4.142 0 7.5-3.357 7.5-7.5s-3.358-7.5-7.5-7.5h-58.185l-43.301-25h165.812c4.142 0 7.5-3.357 7.5-7.5s-3.358-7.5-7.5-7.5h-173.647c-2.193-3.417-5.128-6.353-7.894-8.662 1.699-1.792 3.305-3.636 4.77-5.544.716.086 1.434.133 2.15.133 6.247 0 12.332-3.239 15.674-9.027l1.097-1.899h157.85c4.142 0 7.5-3.357 7.5-7.5s-3.358-7.5-7.5-7.5h-149.581c2.96-6.837 5.503-16.335 5.338-25h144.243c4.142 0 7.5-3.357 7.5-7.5s-3.358-7.5-7.5-7.5h-148.581c-6.066-9.577-18.002-18.776-27.307-25h175.888c4.142 0 7.5-3.357 7.5-7.5s-3.358-7.5-7.5-7.5h-202.922c-12.042-5.403-27.233-10.479-37.528-7.724-1.365.365-2.716.849-4.05 1.42v-67.762c0-4.143-3.358-7.5-7.5-7.5s-7.5 3.357-7.5 7.5v78.305c-4.476 4.389-8.02 9.067-10.031 12.549l-7.001 12.126c-2.468 4.087-3.181 8.87-2.009 13.479.602 2.366 1.694 4.58 3.171 6.51-2.608 6.31-4.173 13.356-5.688 20.23-1.806 8.194-3.512 15.935-6.693 21.445-2.071 3.588-.842 8.175 2.745 10.245 1.182.682 2.471 1.006 3.743 1.006 2.592 0 5.113-1.345 6.502-3.751 4.341-7.519 6.379-16.771 8.351-25.718 1.139-5.169 2.24-10.154 3.695-14.516l71.847 41.481c-3.05 3.441-6.818 6.886-10.725 10.457-6.763 6.182-13.756 12.572-18.096 20.091-4.341 7.519-6.379 16.771-8.351 25.718-1.139 5.169-2.24 10.154-3.695 14.516l-71.837-41.475c2.118-2.391 4.521-4.73 6.926-6.975 3.028-2.827 3.192-7.572.366-10.601-2.827-3.029-7.573-3.191-10.6-.366-3.775 3.523-7.591 7.304-10.773 11.447-2.41-.314-4.872-.153-7.222.51-4.579 1.289-8.363 4.299-10.669 8.479l-7.001 12.126c-4.416 7.648-10.136 24.577-6.689 37.441 4.421 16.501 32.57 33.837 41.091 38.757.946.546 2.146 1.226 3.553 1.995h-22.318c-35.368 0-49.881 31.757-52.614 48.549-.353 2.171.265 4.388 1.689 6.063s3.514 2.642 5.713 2.642h258.643c2.2 0 4.289-.966 5.713-2.642s2.042-3.892 1.689-6.063c-2.733-16.792-17.246-48.549-52.614-48.549h-74.106c3.385-3.596 6.135-7.264 7.876-10.28l7.042-12.198c2.413-4.178 3.053-9.046 1.805-13.706-.61-2.276-1.64-4.365-3.016-6.193.918-2.22 1.717-4.525 2.419-6.889 3.732 1.368 8.225 2.537 12.705 2.537 1.833 0 3.664-.195 5.437-.653 2.134-.551 4.064-1.456 5.777-2.655l38.609 22.291h-39.926c-4.142 0-7.5 3.357-7.5 7.5s3.358 7.5 7.5 7.5h65.907l7.742 4.47c5.194 3.504 72.977 49.207 83.012 55.001 4.497 2.597 9.412 3.83 14.266 3.83 9.9-.001 19.543-5.135 24.839-14.308 7.892-13.671 3.192-31.213-10.478-39.105zm-110.408-22.028-64.635-37.317 7.5-12.99 64.634 37.317zm-117.381-189.796c.743-.199 1.657-.3 2.73-.3 7.386 0 22.259 4.768 39.997 15.009 20.315 11.729 32.533 23.794 34.102 29.649.63 2.35.668 5.287.323 8.383l-84.561-48.821c2.507-1.853 5.065-3.292 7.409-3.92zm-27.113 29.887c.033-.054.066-.109.098-.164l7.042-12.198c.462-.8 1.033-1.666 1.682-2.566l91.345 52.738c-.454 1.013-.918 1.941-1.38 2.74l-7.042 12.198c-.844 1.463-2.722 1.966-4.185 1.121l-86.341-49.849c-.774-.447-1.336-1.167-1.542-1.975-.18-.711-.072-1.398.323-2.045zm-36.962 169.809c-20.316-11.729-32.534-23.793-34.102-29.648-.628-2.343-.661-5.278-.309-8.376l84.561 48.822c-2.509 1.848-5.071 3.283-7.422 3.913-.546.146-1.185.238-1.911.276h-1.664c-7.638-.342-22.065-5.121-39.153-14.987zm177.309 57.24h-238.869c1.101-2.938 2.626-6.33 4.698-9.691 7.183-11.653 17.477-17.562 30.597-17.562h168.22c21.758-.001 31.403 16.596 35.354 27.253zm-107.532-72.232-7.042 12.198c-.462.8-1.033 1.665-1.683 2.565l-91.345-52.738c.455-1.012.919-1.94 1.381-2.74l7.042-12.197c.032-.055.063-.111.094-.167.362-.665.903-1.104 1.61-1.303.26-.073.532-.109.806-.109.569 0 1.151.156 1.674.458l86.341 49.849c.956.552 1.304 1.402 1.427 1.86.124.457.247 1.368-.305 2.324zm17.774-33.995c1.7-7.689 3.389-14.893 6.394-20.099 3.006-5.206 8.396-10.268 14.207-15.586 3.259 2.502 6.478 5.717 7.203 8.346.227.825.156 1.381-.273 2.123l-15 25.98c-.429.743-.875 1.083-1.702 1.298-2.64.689-7.036-.493-10.829-2.062zm201.8 92.72c-3.757 6.507-12.107 8.742-18.615 4.987-7.248-4.185-50.338-33.033-76.542-50.684l8.004-13.864c28.389 13.868 74.916 36.761 82.165 40.945 6.507 3.758 8.745 12.108 4.988 18.616z"/></g></g></svg>