<svg id="Layer_1" viewBox="0 0 512 512" xmlns="http://www.w3.org/2000/svg" data-name="Layer 1"><g><rect fill="#b4d2d7" height="438.198" rx="19.849" width="373.22" x="9.002" y="53.113"/><g fill-rule="evenodd"><path d="m362.374 53.113c10.933 0 19.849 8.918 19.849 19.849v398.5c0 10.932-8.918 19.849-19.849 19.849h-19.479c10.933 0 19.849-8.916 19.849-19.849v-398.5c0-10.933-8.916-19.849-19.849-19.849z" fill="#9bb9c3"/><path d="m41.345 89.352v365.721c0 2.145 1.75 3.896 3.896 3.896h257.135l47.504-47.504v-322.113c0-2.146-1.75-3.896-3.896-3.896h-300.743c-2.146 0-3.896 1.75-3.896 3.896z" fill="#eff4f7"/><path d="m41.345 89.352v365.721c0 2.146 1.75 3.896 3.896 3.896h16.903c-2.146 0-3.896-1.75-3.896-3.896v-365.721c0-2.145 1.75-3.896 3.896-3.896h-16.903c-2.146 0-3.896 1.75-3.896 3.896z" fill="#e2e3e3"/><path d="m302.376 411.464v47.504l47.504-47.504z" fill="#e2e3e3"/><path d="m264.307 53.113h-49.76l19.798-27.992c4.45-6.292-.031-14.95-7.738-14.95h-61.992c-7.707 0-12.188 8.658-7.738 14.95l19.798 27.992h-49.76c-2.497 0-4.335 2.278-3.808 4.719l6.728 31.137c1.175 5.44 5.859 9.219 11.424 9.219h108.703c5.565 0 10.249-3.78 11.424-9.219l6.728-31.137c.527-2.44-1.312-4.719-3.808-4.719z" fill="#da8c36"/><path d="m177.712 10.171h-13.095c-7.708 0-12.188 8.658-7.738 14.95l19.798 27.992h13.095l-19.798-27.992c-4.45-6.292.031-14.95 7.738-14.95zm-37.7 42.942c-2.497 0-4.336 2.278-3.808 4.719l6.728 31.137c1.175 5.44 5.859 9.219 11.424 9.219h-13.095c-5.565 0-10.248-3.779-11.424-9.219l-6.728-31.137c-.527-2.44 1.312-4.719 3.808-4.719z" fill="#c97629"/></g></g><g fill-rule="evenodd"><g><path d="m164.146 142.888c-4.418 0-8-3.582-8-8s3.582-8 8-8h146.199c4.418 0 8 3.582 8 8s-3.582 8-8 8zm0 274.648c-4.418 0-8-3.582-8-8s3.582-8 8-8h104.639c4.418 0 8 3.582 8 8s-3.582 8-8 8zm0-30.228c-4.418 0-8-3.582-8-8s3.582-8 8-8h146.199c4.418 0 8 3.582 8 8s-3.582 8-8 8zm0-81.473c-4.418 0-8-3.582-8-8s3.582-8 8-8h146.199c4.418 0 8 3.582 8 8s-3.582 8-8 8zm0 30.227c-4.418 0-8-3.582-8-8s3.582-8 8-8h146.199c4.418 0 8 3.582 8 8s-3.582 8-8 8zm0-81.473c-4.418 0-8-3.582-8-8s3.582-8 8-8h146.199c4.418 0 8 3.582 8 8s-3.582 8-8 8zm0-30.228c-4.418 0-8-3.582-8-8s3.582-8 8-8h146.199c4.418 0 8 3.582 8 8s-3.582 8-8 8zm0-51.245c-4.418 0-8-3.582-8-8s3.582-8 8-8h146.199c4.418 0 8 3.582 8 8s-3.582 8-8 8z" fill="#96a4af"/><path d="m126.815 365.85h-48.832c-2.286 0-4.156 1.87-4.156 4.156v48.832c0 2.286 1.87 4.156 4.156 4.156h48.832c2.286 0 4.156-1.87 4.156-4.156v-48.832c0-2.286-1.87-4.156-4.156-4.156zm.001-244.42h-48.833c-2.286 0-4.156 1.87-4.156 4.156v48.833c0 2.286 1.87 4.156 4.156 4.156h48.833c2.286 0 4.156-1.87 4.156-4.156v-48.833c0-2.286-1.87-4.156-4.156-4.156zm0 81.473h-48.833c-2.286 0-4.156 1.87-4.156 4.156v48.833c0 2.286 1.87 4.156 4.156 4.156h48.833c2.286 0 4.156-1.87 4.156-4.156v-48.833c0-2.286-1.87-4.156-4.156-4.156zm-.001 138.617h-48.832c-2.286 0-4.156-1.87-4.156-4.156v-48.832c0-2.286 1.87-4.156 4.156-4.156h48.832c2.286 0 4.156 1.87 4.156 4.156v48.832c0 2.286-1.87 4.156-4.156 4.156z" fill="#64b5f6"/><path d="m126.815 365.85h-48.832c-2.286 0-4.156 1.87-4.156 4.156v48.832c0 2.286 1.87 4.156 4.156 4.156h5.844v-42.988c0-2.286 1.87-4.156 4.156-4.156h42.988v-5.844c0-2.286-1.87-4.156-4.156-4.156zm.001-244.42h-48.833c-2.286 0-4.156 1.87-4.156 4.156v48.833c0 2.286 1.87 4.156 4.156 4.156h5.844v-42.988c0-2.285 1.87-4.156 4.156-4.156h42.988v-5.844c0-2.286-1.87-4.156-4.156-4.156zm0 81.473h-48.833c-2.286 0-4.156 1.87-4.156 4.156v48.833c0 2.286 1.87 4.156 4.156 4.156h5.844v-42.988c0-2.286 1.87-4.156 4.156-4.156h42.988v-5.844c0-2.286-1.87-4.156-4.156-4.156zm-42.988 138.617h-5.844c-2.286 0-4.156-1.87-4.156-4.156v-48.832c0-2.286 1.87-4.156 4.156-4.156h48.832c2.286 0 4.156 1.87 4.156 4.156v5.844h-42.988c-2.286 0-4.156 1.87-4.156 4.156z" fill="#42a5f5"/><path d="m99.146 408.988c-3.124 3.124-8.189 3.124-11.312 0-3.124-3.124-3.124-8.189 0-11.312l3.254-3.254-3.254-3.254c-3.124-3.124-3.124-8.189 0-11.312 3.124-3.124 8.189-3.124 11.312 0l3.254 3.254 3.254-3.254c3.124-3.124 8.189-3.124 11.312 0 3.124 3.124 3.124 8.189 0 11.312l-3.254 3.254 3.254 3.254c3.124 3.124 3.124 8.189 0 11.312-3.124 3.124-8.189 3.124-11.312 0l-3.254-3.254zm0-244.42c-3.124 3.124-8.189 3.124-11.312 0-3.124-3.124-3.124-8.189 0-11.312l3.254-3.254-3.254-3.254c-3.124-3.124-3.124-8.189 0-11.312 3.124-3.124 8.189-3.124 11.312 0l3.254 3.254 3.254-3.254c3.124-3.124 8.189-3.124 11.312 0 3.124 3.124 3.124 8.189 0 11.312l-3.254 3.254 3.254 3.254c3.124 3.124 3.124 8.189 0 11.312-3.124 3.124-8.189 3.124-11.312 0l-3.254-3.254zm0 81.474c-3.124 3.124-8.189 3.124-11.312 0s-3.124-8.189 0-11.312l3.254-3.254-3.254-3.254c-3.124-3.124-3.124-8.189 0-11.312 3.124-3.124 8.189-3.124 11.312 0l3.254 3.254 3.254-3.254c3.124-3.124 8.189-3.124 11.312 0 3.124 3.124 3.124 8.189 0 11.312l-3.254 3.254 3.254 3.254c3.124 3.124 3.124 8.189 0 11.312-3.124 3.124-8.189 3.124-11.312 0l-3.254-3.254zm0 81.473c-3.124 3.124-8.189 3.124-11.312 0-3.124-3.124-3.124-8.189 0-11.312l3.254-3.254-3.254-3.254c-3.124-3.124-3.124-8.189 0-11.312s8.189-3.124 11.312 0l3.254 3.254 3.254-3.254c3.124-3.124 8.189-3.124 11.312 0 3.124 3.124 3.124 8.189 0 11.312l-3.254 3.254 3.254 3.254c3.124 3.124 3.124 8.189 0 11.312s-8.189 3.124-11.312 0l-3.254-3.254z" fill="#eff4f7"/></g><g><path d="m379.151 32.491 122.084 203.731c4.887 8.155-.956 18.466-10.463 18.466h-239.064c-9.507 0-15.35-10.311-10.463-18.466l122.084-203.731c3.573-5.963 12.249-5.963 15.822 0z" fill="#fc685b"/><path d="m379.151 32.491 122.084 203.731c4.887 8.155-.956 18.466-10.463 18.466h-16.311c9.507 0 15.35-10.311 10.463-18.466l-121.839-203.323.245-.408c3.573-5.963 12.249-5.963 15.822 0z" fill="#f35244"/><path d="m371.24 208.602c7.2 0 13.036 5.836 13.036 13.036s-5.836 13.036-13.036 13.036-13.036-5.836-13.036-13.036 5.836-13.036 13.036-13.036zm10.13-25.727c0 12.69-20.261 12.69-20.261 0l-6.219-90.298c0-20.482 32.699-20.482 32.699 0z" fill="#ffda2d"/><path d="m371.24 208.602c1.424 0 2.795.229 4.078.652-5.202 1.712-8.958 6.609-8.958 12.384s3.756 10.673 8.958 12.385c-1.283.422-2.654.651-4.078.651-7.2 0-13.036-5.836-13.036-13.036s5.836-13.036 13.036-13.036zm4.078-16.933c-5.97 2.228-14.209-.702-14.209-8.794l-6.219-90.298c0-11.96 11.149-16.933 20.427-14.925-6.61 1.431-12.272 6.403-12.272 14.925l6.219 90.298c0 4.598 2.661 7.529 6.053 8.794z" fill="#ffc700"/></g><g><path d="m470.018 480.089c.585 5.101-.814 10.424-4.323 14.671-6.842 8.282-19.217 9.46-27.5 2.618l-113.418-93.704c-7.058-5.832-8.956-15.681-5.127-23.591.556 4.847 2.904 9.495 6.94 12.83l113.418 93.704c8.282 6.843 20.657 5.665 27.5-2.618 1.011-1.224 1.846-2.537 2.51-3.908z" fill="#a3631d"/><path d="m349.66 373.556 113.418 93.704c8.283 6.843 9.46 19.217 2.618 27.5-6.843 8.283-19.217 9.46-27.5 2.618l-113.418-93.704c-8.282-6.843-9.46-19.217-2.618-27.499 6.843-8.283 19.217-9.46 27.5-2.618z" fill="#b76f21"/><path d="m283.176 345.029c16.986-20.56 38.335-33.597 57.403-36.937l46.694 38.578c.317 19.355-8.459 42.781-25.445 63.341s-38.336 33.597-57.403 36.938l-46.695-38.578c-.317-19.356 8.459-42.781 25.445-63.341z" fill="#da8c36"/><path d="m283.176 345.028c16.986-20.56 38.335-33.597 57.403-36.937l4.066 3.359c-17.251 4.912-35.685 17.209-50.707 35.391-16.986 20.56-25.762 43.985-25.445 63.341l42.629 35.219c-2.256.642-4.492 1.16-6.697 1.546l-46.695-38.578c-.317-19.356 8.459-42.781 25.445-63.341z" fill="#cd7d25"/><path d="m326.054 304.459 8.039-9.731c1.507-1.824 4.233-2.084 6.057-.577l60.893 50.308c1.824 1.507 2.084 4.233.576 6.057l-8.039 9.731c-1.507 1.824-4.233 2.084-6.057.576l-60.893-50.308c-1.824-1.507-2.084-4.233-.577-6.057zm-82.67 100.063 8.039-9.731c1.507-1.824 4.233-2.084 6.057-.577l60.893 50.308c1.824 1.507 2.084 4.233.577 6.057l-8.039 9.731c-1.507 1.824-4.233 2.084-6.057.577l-60.893-50.308c-1.824-1.507-2.084-4.233-.577-6.057z" fill="#b76f21"/><path d="m326.054 304.458 3.279-3.969 60.003 49.573c1.824 1.507 4.55 1.247 6.057-.577l4.76-5.762.89.735c1.824 1.507 2.083 4.233.576 6.057l-8.04 9.731c-1.507 1.824-4.233 2.084-6.057.576l-60.893-50.308c-1.824-1.507-2.084-4.233-.577-6.058zm-82.67 100.064 3.28-3.969 60.003 49.573c1.824 1.507 4.55 1.248 6.057-.577l4.76-5.761.89.735c1.824 1.507 2.084 4.233.577 6.057l-8.04 9.731c-1.507 1.824-4.233 2.084-6.057.577l-60.893-50.309c-1.825-1.507-2.084-4.233-.577-6.057z" fill="#a3631d"/></g></g></svg>