<svg id="Capa_1" enable-background="new 0 0 512 512" height="512" viewBox="0 0 512 512" width="512" xmlns="http://www.w3.org/2000/svg"><g><g><path d="m385.303 504.5h-339.415c-8.926 0-16.163-7.236-16.163-16.163v-371.452c0-5.358 2.129-10.497 5.917-14.286l89.181-89.181c3.789-3.789 8.928-5.917 14.286-5.917h246.193c8.926 0 16.163 7.236 16.163 16.163v464.675c0 8.925-7.236 16.161-16.162 16.161z" fill="#ecf4ff"/></g><g><path d="m385.303 7.5h-24.428c8.926 0 16.163 7.236 16.163 16.163v464.675c0 8.926-7.236 16.163-16.163 16.163h24.428c8.926 0 16.163-7.236 16.163-16.163v-464.675c-.001-8.927-7.237-16.163-16.163-16.163z" fill="#ddeafb"/></g><g><path d="m139.11 7.5c-5.358 0-10.497 2.129-14.286 5.917l-89.182 89.181c-3.789 3.789-5.917 8.928-5.917 14.286v11.835h90.915c16.71 0 30.305-13.595 30.305-30.305v-90.914z" fill="#ddeafb"/></g><g><path d="m130.742 98.415v-89.076c-2.178.993-4.192 2.353-5.917 4.079l-89.182 89.181c-1.725 1.725-3.086 3.739-4.078 5.917h89.076c5.578 0 10.101-4.522 10.101-10.101z" fill="#4a80aa"/></g><g><g><g><g><path d="m62.051 163.065h40.407v40.407h-40.407z" fill="#df75a5"/></g></g><g><g><path d="m62.051 235.797h40.407v40.407h-40.407z" fill="#df75a5"/></g></g><g><g><path d="m62.051 308.528h40.407v40.407h-40.407z" fill="#df75a5"/></g></g><g><g><path d="m62.051 381.26h40.407v40.407h-40.407z" fill="#df75a5"/></g></g></g></g><g><g><g><path d="m381.797 439.078h34.286v32.857h-34.286z" fill="#f4dd45" transform="matrix(.707 -.707 .707 .707 -205.245 415.508)"/></g></g><g><g><path d="m350.41 413.406h48.572v35.715h-48.572z" fill="#2b4d66" transform="matrix(.707 -.707 .707 .707 -195.203 391.264)"/></g></g><g><g><path d="m482.278 504.5h-68.691l-20.203-20.203 34.345-34.346z" fill="#4a80aa"/></g></g><g><circle cx="274.185" cy="330.752" fill="#4a80aa" r="127.28"/></g><g><path d="m355.405 232.754c18.286 22.039 29.283 50.345 29.283 81.22 0 70.295-56.985 127.28-127.281 127.28-30.875 0-59.181-10.996-81.22-29.283 23.347 28.138 58.578 46.061 97.998 46.061 70.295 0 127.28-56.986 127.28-127.28 0-39.42-17.922-74.651-46.06-97.998z" fill="#407093"/></g><g><circle cx="274.185" cy="330.752" fill="#90d8f9" r="90.253"/></g></g><g><path d="m29.722 389.95c4.143 0 7.5-3.357 7.5-7.5v-265.57c0-.289.023-.576.044-.863h83.375c9.705 0 17.602-7.896 17.602-17.602v-83.373c.289-.02.578-.042.87-.042h246.189c4.775 0 8.66 3.885 8.66 8.66v72.34c0 4.143 3.357 7.5 7.5 7.5s7.5-3.357 7.5-7.5v-72.34c0-13.046-10.614-23.66-23.66-23.66h-246.19c-7.401 0-14.359 2.883-19.594 8.116l-89.181 89.18c-5.158 5.158-8.116 12.297-8.116 19.584v265.57c.001 4.143 3.358 7.5 7.501 7.5zm93.52-364.343v72.808c0 1.435-1.167 2.602-2.602 2.602h-72.808z"/><path d="m109.957 163.065c0-4.143-3.357-7.5-7.5-7.5h-40.406c-4.143 0-7.5 3.357-7.5 7.5v40.406c0 4.143 3.357 7.5 7.5 7.5h40.406c4.143 0 7.5-3.357 7.5-7.5zm-15 32.907h-25.406v-25.406h25.406z"/><path d="m142.863 155.565c-4.143 0-7.5 3.357-7.5 7.5s3.357 7.5 7.5 7.5h161.627c4.143 0 7.5-3.357 7.5-7.5s-3.357-7.5-7.5-7.5z"/><path d="m109.957 235.797c0-4.143-3.357-7.5-7.5-7.5h-40.406c-4.143 0-7.5 3.357-7.5 7.5v40.406c0 4.143 3.357 7.5 7.5 7.5h40.406c4.143 0 7.5-3.357 7.5-7.5zm-15 32.906h-25.406v-25.406h25.406z"/><path d="m109.957 308.528c0-4.143-3.357-7.5-7.5-7.5h-40.406c-4.143 0-7.5 3.357-7.5 7.5v40.406c0 4.143 3.357 7.5 7.5 7.5h40.406c4.143 0 7.5-3.357 7.5-7.5zm-15 32.907h-25.406v-25.406h25.406z"/><path d="m102.457 373.76h-40.406c-4.143 0-7.5 3.357-7.5 7.5v40.407c0 4.143 3.357 7.5 7.5 7.5h40.406c4.143 0 7.5-3.357 7.5-7.5v-40.407c0-4.143-3.358-7.5-7.5-7.5zm-7.5 40.407h-25.406v-25.407h25.406z"/><path d="m487.582 499.196-54.549-54.549c-2.844-2.842-7.397-2.917-10.342-.24l-12.652-12.652c2.677-2.944 2.603-7.497-.24-10.342l-.838-.838v-289.575c0-4.143-3.357-7.5-7.5-7.5s-7.5 3.357-7.5 7.5v137.997c-22.435-43.337-67.703-73.026-119.777-73.026h-131.321c-4.143 0-7.5 3.357-7.5 7.5s3.357 7.5 7.5 7.5h69.573c-9.248 4.787-17.871 10.615-25.72 17.325h-43.853c-4.143 0-7.5 3.357-7.5 7.5s3.357 7.5 7.5 7.5h28.855c-20.135 23.557-32.314 54.109-32.314 87.455 0 31.47 10.844 60.453 28.988 83.415h-25.529c-4.143 0-7.5 3.357-7.5 7.5s3.357 7.5 7.5 7.5h39.338c24.103 22.542 56.457 36.365 91.983 36.365 25.664 0 49.673-7.213 70.114-19.714l20.549 20.549c1.465 1.464 3.385 2.196 5.304 2.196 1.807 0 3.611-.658 5.039-1.957l12.651 12.652c-2.678 2.944-2.604 7.498.24 10.342l4.049 4.049c-1.608 2.049-4.112 3.351-6.827 3.351h-339.412c-4.78 0-8.67-3.885-8.67-8.66v-70.89c0-4.143-3.357-7.5-7.5-7.5s-7.5 3.357-7.5 7.5v70.89c0 13.046 10.618 23.66 23.67 23.66h339.41c6.884 0 13.139-2.905 17.492-7.686l5.489 5.489c2.93 2.928 7.678 2.928 10.607 0 2.929-2.93 2.929-7.678 0-10.607l-14.9-14.899 23.739-23.739 49.245 49.246c1.465 1.464 3.385 2.196 5.304 2.196s3.839-.732 5.304-2.196c2.93-2.929 2.93-7.677.001-10.607zm-89.148-30.557-12.625-12.626 13.637-13.637 12.626 12.626zm-244.03-137.887c0-66.047 53.733-119.78 119.78-119.78 65.945 0 119.61 53.567 119.777 119.473v.615c-.167 65.906-53.833 119.473-119.777 119.473-66.046-.001-119.78-53.734-119.78-119.781zm202.431 106.389c8.861-6.899 16.84-14.878 23.739-23.738l13.316 13.315-23.739 23.739z"/><path d="m360.131 284.207c-1.98-3.639-6.533-4.986-10.172-3.006-3.639 1.979-4.984 6.533-3.006 10.172 6.535 12.017 9.989 25.633 9.989 39.377 0 45.634-37.126 82.76-82.761 82.76-45.629 0-82.75-37.126-82.75-82.76 0-45.629 37.121-82.75 82.75-82.75 19.061 0 37.682 6.669 52.432 18.777 3.201 2.628 7.928 2.163 10.556-1.038s2.163-7.928-1.038-10.556c-17.426-14.305-39.427-22.183-61.949-22.183-53.899 0-97.75 43.851-97.75 97.75 0 53.905 43.851 97.76 97.75 97.76 53.905 0 97.761-43.854 97.761-97.76-.001-16.239-4.085-32.334-11.812-46.543z"/><circle cx="274.185" cy="381.593" r="6.739"/><path d="m281.684 336.537c7.004-1.512 13.495-5.107 18.486-10.364 6.834-7.198 10.314-16.632 9.799-26.562-.969-18.65-16.364-33.554-35.049-33.93-.246-.006-.488-.008-.733-.008-17.831 0-33.021 13.142-35.49 30.843-.229 1.64-.346 3.318-.346 4.99 0 4.143 3.357 7.5 7.5 7.5s7.5-3.357 7.5-7.5c0-.979.067-1.958.201-2.915 1.436-10.285 10.268-17.918 20.639-17.918.142 0 .285.002.427.004 10.86.219 19.809 8.877 20.371 19.711.301 5.782-1.723 11.271-5.696 15.457-3.977 4.188-9.343 6.495-15.108 6.495-4.143 0-7.5 3.357-7.5 7.5v29.628c0 4.143 3.357 7.5 7.5 7.5s7.5-3.357 7.5-7.5v-22.931z"/></g></g></svg>