<svg id="Layer_1" viewBox="0 0 512 512" xmlns="http://www.w3.org/2000/svg" data-name="Layer 1"><g fill-rule="evenodd"><path d="m276.68 245.16h214.33v-53.94c0-95.98-214.33-95.98-214.33 0z" fill="#3198fc"/><path d="m276.68 245.16h170.82v-53.94c0-41.47-40-65-85.41-70.64-45.41 5.64-85.41 29.17-85.41 70.64z" fill="#4bb3fd"/><path d="m383.83 130.07c-32.54-.6-54.17-37.9-54.17-69.02 0-68.09 108.37-68.09 108.37 0 0 31.12-21.63 68.43-54.2 69.02z" fill="#f6b4a8"/><path d="m370.34 127.6c-24.89-8.87-40.68-39.97-40.68-66.56 0-28.32 18.77-44.87 40.68-49.61 21.91 4.73 40.68 21.29 40.68 49.61 0 26.59-15.76 57.69-40.68 66.56z" fill="#f9c9c0"/><path d="m20.99 245.16h214.33v-53.94c0-95.98-214.33-95.98-214.33 0z" fill="#f28d00"/><path d="m20.99 245.16h170.82v-53.94c0-41.47-39.97-65-85.41-70.64-45.41 5.64-85.41 29.17-85.41 70.64z" fill="#ff9b0d"/><path d="m128.14 130.07c-32.54-.6-54.17-37.9-54.17-69.02 0-68.09 108.37-68.09 108.37 0 0 31.12-21.63 68.43-54.2 69.02z" fill="#f6b4a8"/><path d="m114.65 127.6c-24.89-8.87-40.68-39.97-40.68-66.56 0-28.32 18.77-44.87 40.68-49.61 21.91 4.73 40.68 21.29 40.68 49.61 0 26.59-15.76 57.69-40.68 66.56z" fill="#f9c9c0"/><path d="m73.38 454.35 22.76 22.79 96.63-96.6-22.79-22.79z" fill="#bcb7c2"/></g><path d="m70.44 415.09h136.64v16.12h-136.64z" fill="#aaa6b0" transform="matrix(.707 -.707 .707 .707 -258.57 222.05)"/><path d="m51.75 475.95 22.79 22.79c4.34 4.31 11.4 4.31 15.7 0l36.54-36.51c4.31-4.34 4.31-11.4 0-15.73l-22.79-22.76c-4.31-4.34-11.4-4.34-15.7 0l-36.54 36.51c-4.31 4.34-4.31 11.4 0 15.7z" fill="#574e66" fill-rule="evenodd"/><path d="m74.54 498.74c4.34 4.31 11.4 4.31 15.7 0l36.54-36.51c4.31-4.34 4.31-11.4 0-15.73l-11.4-11.4-52.24 52.24z" fill="#4b4359" fill-rule="evenodd"/><path d="m348.48 202.04c51.08 51.05 51.08 133.88 0 184.96-51.08 51.05-133.88 51.05-184.96 0-51.08-51.08-51.08-133.91 0-184.96 51.08-51.08 133.88-51.08 184.96 0z" fill="#4b4359" fill-rule="evenodd"/><path d="m242.86 424.65c-28.97-2.92-57.15-15.45-79.34-37.64-51.08-51.08-51.08-133.91 0-184.96 22.2-22.2 50.37-34.75 79.34-37.64 28.97 2.89 57.17 15.45 79.37 37.64 51.08 51.05 51.08 133.88 0 184.96-22.2 22.2-50.4 34.72-79.37 37.64z" fill="#574e66" fill-rule="evenodd"/><path d="m327.56 222.96c39.52 39.51 39.52 103.58 0 143.09-39.51 39.54-103.61 39.54-143.12 0-39.52-39.51-39.52-103.58 0-143.09 39.51-39.52 103.61-39.52 143.12 0z" fill="#e1dae7" fill-rule="evenodd"/><path d="m241.76 394.71c-20.98-2.98-41.19-12.53-57.32-28.66-39.52-39.51-39.52-103.58 0-143.09 16.13-16.13 36.34-25.68 57.32-28.63 20.95 2.95 41.16 12.5 57.29 28.63 39.54 39.51 39.54 103.58 0 143.09-16.13 16.13-36.34 25.68-57.29 28.66z" fill="#ebe6ef" fill-rule="evenodd"/><path d="m199.49 307.32h24.12v46.77h-24.12z" fill="#f24c00"/><path d="m244.62 286.09h24.12v68h-24.12z" fill="#08a88a"/><path d="m289.75 268.6h24.12v85.49h-24.12z" fill="#4bb3fd"/><path d="m200.29 279.83c-3.06 1.22-6.55-.31-7.74-3.4-1.22-3.06.31-6.55 3.4-7.74l91.28-35.8-4.22-1.62c-3.09-1.16-4.65-4.65-3.46-7.74 1.16-3.09 4.65-4.65 7.74-3.46l17.49 6.69c3.09 1.19 4.65 4.65 3.46 7.74l-6.69 17.49c-1.19 3.09-4.65 4.65-7.74 3.46-3.09-1.16-4.65-4.62-3.46-7.71l1.42-3.77-91.47 35.86z" fill="#4bb3fd"/><path d="m192.55 276.37c-1.22-3.09.31-6.58 3.4-7.8l91.19-35.74-4.17-1.59c-3.09-1.19-4.65-4.68-3.46-7.77s4.65-4.65 7.77-3.46l17.52 6.69c1.47.57 2.66 1.7 3.32 3.15.65 1.47.71 3.12.14 4.62l-6.72 17.49c-.91 2.38-3.2 3.86-5.61 3.86-.71 0-1.45-.14-2.15-.4-3.09-1.19-4.65-4.68-3.46-7.77l1.42-3.71-91.42 35.83c-.71.28-1.45.43-2.18.43-2.41 0-4.68-1.45-5.58-3.83zm195.5-272.33h-8.42c-14 .82-26.99 5.73-36.91 14.03-12.47 10.46-19.08 25.31-19.08 42.92 0 20.01 8.08 41.5 21.66 56.32-31.18 6.94-54.79 21.94-66.42 42.32-15.14-2.55-30.64-2.55-45.78 0-11.62-20.38-35.26-35.38-66.42-42.32 13.55-14.83 21.66-36.31 21.66-56.32 0-17.6-6.6-32.46-19.08-42.92-9.92-8.31-22.9-13.21-36.91-14.03h-8.42c-14 .82-26.99 5.73-36.91 14.03-12.47 10.46-19.08 25.31-19.08 42.92 0 20.01 8.08 41.5 21.66 56.32-46.37 10.26-74.64 37.84-74.64 73.84v53.94c0 3.32 2.69 6.01 6.01 6.01h105.28c-13.61 40.9-7.4 87 18.62 123.17l-41.67 41.67c-2.21-.99-4.59-1.53-7.09-1.53-4.59 0-8.9 1.79-12.1 5.02l-36.54 36.51c-6.66 6.69-6.66 17.55 0 24.21l22.79 22.79c3.23 3.23 7.54 5.02 12.1 5.02h.03c4.59-.03 8.87-1.81 12.08-5.02l36.54-36.54c5.16-5.16 6.29-12.84 3.43-19.16l41.7-41.7c23.75 17.06 51.79 25.63 79.82 25.63 35.04 0 70.07-13.32 96.75-39.97 25.82-25.85 40.05-60.21 40.05-96.75 0-14.97-2.38-29.57-6.97-43.34h105.19c3.32 0 6.01-2.69 6.01-6.01v-53.94c0-36-28.29-63.58-74.64-73.84 13.55-14.83 21.66-36.31 21.66-56.32 0-17.6-6.6-32.46-19.08-42.92-9.92-8.31-22.9-13.21-36.91-14.03zm-80.19 343.98h-12.1v-73.47h12.1zm6.01-85.49h-24.12c-3.32 0-6.01 2.69-6.01 6.01v85.49c0 3.32 2.69 6.01 6.01 6.01h24.12c3.32 0 6.01-2.69 6.01-6.01v-85.49c0-3.32-2.69-6.01-6.01-6.01zm-51.14 85.49h-12.1v-55.98h12.1zm6.01-68h-24.12c-3.32 0-6.01 2.69-6.01 6.01v68c0 3.32 2.69 6.01 6.01 6.01h24.12c3.32 0 6.01-2.69 6.01-6.01v-68c0-3.32-2.69-6.01-6.01-6.01zm-51.14 68h-12.1v-34.75h12.1zm6.01-46.77h-24.12c-3.32 0-6.01 2.69-6.01 6.01v46.77c0 3.32 2.69 6.01 6.01 6.01h24.12c3.32 0 6.01-2.69 6.01-6.01v-46.77c0-3.32-2.69-6.01-6.01-6.01zm99.69 60.52c-17.97 17.97-41.9 27.86-67.32 27.86s-49.32-9.89-67.29-27.86c-37.11-37.13-37.11-97.54 0-134.62 18.57-18.57 42.92-27.84 67.29-27.84s48.76 9.27 67.32 27.84c37.11 37.08 37.11 97.48 0 134.62zm-143.12-143.12c-41.78 41.78-41.78 109.79 0 151.63 20.24 20.24 47.17 31.38 75.8 31.38s55.56-11.14 75.83-31.38c41.78-41.84 41.78-109.84 0-151.63s-109.81-41.81-151.62 0zm304.81 20.44h-103.83c-6.75-15.22-16.3-29.23-28.43-41.36-17.63-17.63-38.89-29.42-61.4-35.4 11.76-17.52 35.06-30.08 65.51-35.01 7.91 5.3 16.98 8.5 26.87 8.7h.23c9.89-.2 18.96-3.4 26.87-8.7 36.28 5.92 74.18 25.65 74.18 63.84zm-140.77 143.6c-24.32 24.32-56.27 36.45-88.24 36.45s-63.89-12.16-88.21-36.45c-48.64-48.67-48.64-127.81 0-176.46 24.32-24.35 56.27-36.51 88.21-36.51s63.92 12.19 88.24 36.51c23.56 23.56 36.54 54.91 36.54 88.21s-12.98 64.66-36.54 88.24zm-217.45 55.25-14.29-14.26 39.88-39.91c2.21 2.55 4.48 5.02 6.89 7.43 2.41 2.38 4.88 4.68 7.4 6.86zm-4.25 19.98-36.57 36.51c-.94.96-2.18 1.47-3.54 1.5h-.03c-1.36 0-2.64-.54-3.6-1.5l-22.79-22.79c-1.98-1.98-1.98-5.22 0-7.2l36.54-36.54c.96-.94 2.24-1.47 3.6-1.47s2.64.54 3.6 1.5l22.79 22.73c1.98 2.01 1.98 5.27 0 7.26zm-95.52-218.83v-47.93c0-38.18 37.87-57.91 74.15-63.84 7.91 5.3 16.98 8.5 26.87 8.7h.23c9.89-.2 18.96-3.4 26.87-8.7 30.44 4.93 53.77 17.49 65.54 35.01-22.51 5.98-43.77 17.77-61.4 35.4-12.27 12.27-21.74 26.33-28.35 41.36zm101.14-223.17c23.22 0 48.19 14.12 48.19 45.07 0 14.49-5.13 30.39-13.78 42.46-9.24 12.98-21.46 20.27-34.41 20.55-27.58-.6-48.16-33.73-48.16-63.01 0-30.95 24.97-45.07 48.16-45.07zm255.69 0c23.22 0 48.19 14.12 48.19 45.07 0 14.49-5.16 30.39-13.78 42.46-9.24 12.98-21.46 20.27-34.41 20.55-27.58-.6-48.16-33.73-48.16-63.01 0-30.95 24.97-45.07 48.16-45.07z"/></svg>