<svg xmlns="http://www.w3.org/2000/svg" version="1.1" xmlns:xlink="http://www.w3.org/1999/xlink" width="512" height="512" x="0" y="0" viewBox="0 0 512 512" style="enable-background:new 0 0 512 512" xml:space="preserve" class=""><g><path d="M404.588 163.285 262 80.962a12 12 0 0 0-12 0l-142.587 82.323a12 12 0 0 0-6 10.393v164.645a12 12 0 0 0 6 10.393L250 431.038a12 12 0 0 0 12 0l142.588-82.322a12 12 0 0 0 6-10.393V173.678a12 12 0 0 0-6-10.393ZM256 105.211l118.587 68.467L256 242.144l-118.587-68.467Zm-130.587 89.251L244 262.928v136.933L125.413 331.4ZM268 399.861V262.928l118.588-68.466V331.4Zm196.262-66.01a36.755 36.755 0 0 0-6.355-2.9V181.022a36.68 36.68 0 0 0 6.355-66.457 36.771 36.771 0 0 0-42.394 4.058L292.056 43.676a36.71 36.71 0 1 0-72.077-.021L90.134 118.621a36.779 36.779 0 0 0-5.685-4.056 36.711 36.711 0 1 0-30.355 66.481v149.933a36.69 36.69 0 0 0 11.938 71.368 36.918 36.918 0 0 0 24.106-8.966l129.824 74.954a36.7 36.7 0 1 0 72.077 0l129.818-74.95a37.112 37.112 0 0 0 5.695 4.051 36.711 36.711 0 0 0 36.711-63.585Zm-50.147 13.437a36.425 36.425 0 0 0-4.246 25.3L280.05 447.543a37.049 37.049 0 0 0-5.694-4.05 36.749 36.749 0 0 0-42.412 4.047L102.149 372.6a36.7 36.7 0 0 0-24.056-41.649V181.022a36.6 36.6 0 0 0 24.021-41.6l129.845-74.97a36.735 36.735 0 0 0 48.1.008l129.812 74.948a36.664 36.664 0 0 0 24.039 41.638v149.933a36.542 36.542 0 0 0-19.795 16.309ZM434.9 140a12.71 12.71 0 1 1 4.653 17.363A12.72 12.72 0 0 1 434.9 140ZM244.992 30.359a12.63 12.63 0 0 1 7.718-5.921 12.81 12.81 0 0 1 3.311-.438 12.632 12.632 0 0 1 6.334 1.709 12.71 12.71 0 1 1-17.363 4.651ZM55.086 140a12.7 12.7 0 0 1 17.362-4.652A12.71 12.71 0 1 1 55.086 140ZM77.1 372a12.706 12.706 0 1 1-4.653-17.362A12.712 12.712 0 0 1 77.1 372Zm189.907 109.641a12.711 12.711 0 1 1-14.3-18.633 12.81 12.81 0 0 1 3.311-.439 12.632 12.632 0 0 1 6.334 1.709 12.71 12.71 0 0 1 4.652 17.363ZM456.914 372a12.71 12.71 0 1 1 1.27-9.644 12.727 12.727 0 0 1-1.27 9.644Z" fill="#ffffff" opacity="1" data-original="#000000" class=""></path></g></svg>