<svg id="Layer_1" enable-background="new 0 0 68 68" viewBox="0 0 68 68" xmlns="http://www.w3.org/2000/svg"><g><g><path d="m59.5752068 8.7211771v54.0302734c0 1.5898438-1.2998047 2.8701172-2.8798828 2.8701172h-43.5100108c-1.5800781 0-2.869873-1.2802734-2.869873-2.8701172v-54.0302734c0-1.5898433 1.2897949-2.8696284 2.869873-2.8696284h43.5100098c1.5800791 0 2.8798838 1.2797851 2.8798838 2.8696284z" fill="#8a9bea"/></g><g><path d="m55.3452263 4.6713729v54.0302734c0 1.5996094-1.2797852 2.8798828-2.869873 2.8798828h-43.5c-1.5900879 0-2.8701172-1.2802734-2.8701172-2.8798828v-54.0302734c0-1.5800781 1.2800293-2.8798828 2.8701172-2.8798828h43.5c1.5900878-.0000001 2.869873 1.2998047 2.869873 2.8798828z" fill="#d1dafe"/></g><g><g><g><path d="m51.4004211 26.3201199c.4485588.1020222.8968544.2598171 1.3344688.5477486-.4376144.2879333-.88591.4457283-1.3344688.5477505-.4376144.1024761-.8859138.1487274-1.3344727.1487274-.4376106 0-.88591-.0462513-1.3344688-.157795-.4376106-.102478-.88591-.2507496-1.3344688-.5386829.4485588-.2879314.8968582-.4362049 1.3344688-.538681.4485588-.1115456.8968582-.157795 1.3344688-.157795.4485589-.0000001.8968583.0462493 1.3344727.1487274z" fill="#8a9bea"/></g><g><path d="m38.824604 23.2276897c-1.5481949-.102478-3.0961266-.2507515-4.644062-.5386829 1.5479355-.2879314 3.0958672-.4362049 4.644062-.538681 1.5372467-.1115456 3.0851784-.139204 4.6331139-.157795 1.5479317.0090675 3.0958633.0462494 4.6440582.1487274 1.5479317.1020222 3.0958672.2598171 4.6331139.5477486-1.5372467.2879314-3.0851822.4457283-4.6331139.5477505-1.5481949.1024761-3.0961266.139658-4.6440582.1487274-1.5479355-.0185909-3.0958672-.0462513-4.6331139-.157795z" fill="#8a9bea"/></g><g><path d="m36.7426224 30.4989815c1.515873.1020222 3.0320091.259819 4.5585709.5477505-1.5265617.2879314-3.0426979.4457264-4.5585709.5477486-1.5265617.102478-3.0424347.139658-4.5585709.1487274-1.5265617-.0185909-3.0424366-.0462494-4.5585709-.157795-1.5265617-.1024761-3.0424366-.2507496-4.5585709-.538681 1.5161343-.2879314 3.0320091-.4362049 4.5585709-.5386829 1.5161343-.1115437 3.0320091-.139204 4.5585709-.157795 1.5161362.0090694 3.0320091.0462513 4.5585709.1487274z" fill="#8a9bea"/></g><g><path d="m24.7430763 23.2276897c-.5658455-.102478-1.121006-.2507515-1.6761665-.5386829.5551605-.2879314 1.110321-.4362049 1.6761665-.538681.5551605-.1115456 1.110321-.157795 1.6761684-.157795.5551605 0 1.121006.0462494 1.6761665.1487274.5549011.1020222 1.1210079.2598171 1.6761684.5477486-.5551605.2879314-1.1212673.4457283-1.6761684.5477505-.5551605.1024761-1.121006.1487274-1.6761665.1487274-.5658473 0-1.1210079-.0462513-1.6761684-.157795z" fill="#8a9bea"/></g><g><path d="m38.5681343 26.3201199c1.718914.1020222 3.4482498.2598171 5.1671638.5477486-1.718914.2879333-3.4482498.4457283-5.1671638.5477505-1.7186508.1024761-3.4482498.139658-5.1669006.1487274-1.729599-.0185909-3.4482498-.0462513-5.1671619-.157795-1.7293377-.102478-3.4482498-.2507496-5.1671619-.5386829 1.7189121-.2879314 3.4378242-.4362049 5.1671619-.538681 1.7189121-.1115456 3.4375629-.139204 5.1671619-.157795 1.7186508.0090694 3.4482498.0462493 5.1669006.1487274z" fill="#8a9bea"/></g></g></g><g><g><g><path d="m51.4004211 39.679287c.4485588.1020241.8968544.259819 1.3344688.5477486-.4376144.2879333-.88591.4457283-1.3344688.5477524-.4376144.1024742-.8859138.1487274-1.3344727.1487274-.4376106 0-.88591-.0462532-1.3344688-.1577988-.4376106-.1024742-.88591-.2507477-1.3344688-.538681.4485588-.2879295.8968582-.436203 1.3344688-.538681.4485588-.1115456.8968582-.157795 1.3344688-.157795.4485589-.0000001.8968583.0462493 1.3344727.1487274z" fill="#8a9bea"/></g><g><path d="m38.824604 36.5868568c-1.5481949-.102478-3.0961266-.2507515-4.644062-.538681 1.5479355-.2879333 3.0958672-.4362068 4.644062-.538681 1.5372467-.1115456 3.0851784-.1392059 4.6331139-.157795 1.5479317.0090675 3.0958633.0462494 4.6440582.1487236 1.5479317.1020241 3.0958672.259819 4.6331139.5477524-1.5372467.2879295-3.0851822.4457245-4.6331139.5477486-1.5481949.102478-3.0961266.1396599-4.6440582.1487274-1.5479355-.018589-3.0958672-.0462494-4.6331139-.157795z" fill="#8a9bea"/></g><g><path d="m36.7426224 43.8581505c1.515873.1020203 3.0320091.2598152 4.5585709.5477486-1.5265617.2879295-3.0426979.4457283-4.5585709.5477486-1.5265617.102478-3.0424347.1396599-4.5585709.1487274-1.5265617-.018589-3.0424366-.0462494-4.5585709-.157795-1.5265617-.102478-3.0424366-.2507515-4.5585709-.538681 1.5161343-.2879333 3.0320091-.4362068 4.5585709-.538681 1.5161343-.1115456 3.0320091-.1392059 4.5585709-.157795 1.5161362.0090675 3.0320091.0462494 4.5585709.1487274z" fill="#8a9bea"/></g><g><path d="m24.7430763 36.5868568c-.5658455-.102478-1.121006-.2507515-1.6761665-.538681.5551605-.2879333 1.110321-.4362068 1.6761665-.538681.5551605-.1115456 1.110321-.157795 1.6761684-.157795.5551605 0 1.121006.0462494 1.6761665.1487236.5549011.1020241 1.1210079.259819 1.6761684.5477524-.5551605.2879295-1.1212673.4457245-1.6761684.5477486-.5551605.102478-1.121006.1487274-1.6761665.1487274-.5658473 0-1.1210079-.0462494-1.6761684-.157795z" fill="#8a9bea"/></g><g><path d="m38.5681343 39.679287c1.718914.1020241 3.4482498.259819 5.1671638.5477486-1.718914.2879333-3.4482498.4457283-5.1671638.5477524-1.7186508.1024742-3.4482498.1396561-5.1669006.1487274-1.729599-.0185928-3.4482498-.0462532-5.1671619-.1577988-1.7293377-.1024742-3.4482498-.2507477-5.1671619-.538681 1.7189121-.2879295 3.4378242-.436203 5.1671619-.538681 1.7189121-.1115456 3.4375629-.1392021 5.1671619-.157795 1.7186508.0090675 3.4482498.0462493 5.1669006.1487274z" fill="#8a9bea"/></g></g></g><g><g><g><path d="m51.4004211 53.038456c.4485588.1020203.8968544.2598152 1.3344688.5477486-.4376144.2879333-.88591.4457283-1.3344688.5477486-.4376144.102478-.8859138.1487274-1.3344727.1487274-.4376106 0-.88591-.0462494-1.3344688-.157795-.4376106-.1024742-.88591-.2507477-1.3344688-.538681.4485588-.2879333.8968582-.4362068 1.3344688-.538681.4485588-.1115456.8968582-.157795 1.3344688-.157795.4485589-.0000001.8968583.0462493 1.3344727.1487274z" fill="#8a9bea"/></g><g><path d="m38.824604 49.9460258c-1.5481949-.102478-3.0961266-.2507515-4.644062-.5386848 1.5479355-.2879295 3.0958672-.436203 4.644062-.538681 1.5372467-.1115456 3.0851784-.1392021 4.6331139-.157795 1.5479317.0090675 3.0958633.0462494 4.6440582.1487274 1.5479317.1020241 3.0958672.259819 4.6331139.5477486-1.5372467.2879333-3.0851822.4457283-4.6331139.5477524-1.5481949.1024742-3.0961266.1396561-4.6440582.1487274-1.5479355-.0185928-3.0958672-.0462532-4.6331139-.157795z" fill="#8a9bea"/></g><g><path d="m36.7426224 57.2173157c1.515873.1020241 3.0320091.259819 4.5585709.5477524-1.5265617.2879295-3.0426979.4457245-4.5585709.5477486-1.5265617.102478-3.0424347.1396599-4.5585709.1487274-1.5265617-.0185928-3.0424366-.0462494-4.5585709-.157795-1.5265617-.102478-3.0424366-.2507515-4.5585709-.538681 1.5161343-.2879333 3.0320091-.4362068 4.5585709-.5386848 1.5161343-.1115417 3.0320091-.1392021 4.5585709-.157795 1.5161362.0090713 3.0320091.0462532 4.5585709.1487274z" fill="#8a9bea"/></g><g><path d="m24.7430763 49.9460258c-.5658455-.102478-1.121006-.2507515-1.6761665-.5386848.5551605-.2879295 1.110321-.436203 1.6761665-.538681.5551605-.1115456 1.110321-.157795 1.6761684-.157795.5551605 0 1.121006.0462494 1.6761665.1487274.5549011.1020241 1.1210079.259819 1.6761684.5477486-.5551605.2879333-1.1212673.4457283-1.6761684.5477524-.5551605.1024742-1.121006.1487274-1.6761665.1487274-.5658473 0-1.1210079-.0462532-1.6761684-.157795z" fill="#8a9bea"/></g><g><path d="m38.5681343 53.038456c1.718914.1020203 3.4482498.2598152 5.1671638.5477486-1.718914.2879333-3.4482498.4457283-5.1671638.5477486-1.7186508.102478-3.4482498.1396599-5.1669006.1487274-1.729599-.018589-3.4482498-.0462494-5.1671619-.157795-1.7293377-.1024742-3.4482498-.2507477-5.1671619-.538681 1.7189121-.2879333 3.4378242-.4362068 5.1671619-.538681 1.7189121-.1115456 3.4375629-.1392059 5.1671619-.157795 1.7186508.0090675 3.4482498.0462493 5.1669006.1487274z" fill="#8a9bea"/></g></g><g><path d="m18.6552849 26.8412952v.050293c0 2.7397461-2.2299805 4.9697266-4.9699717 4.9697266-1.369873 0-2.6101074-.5600586-3.5100098-1.4599609s-1.4599609-2.1401367-1.4599609-3.5097656v-.050293c0-2.7397461 2.2299805-4.9599609 4.9699707-4.9599609 1.369873 0 2.6101084.5600586 3.5100107 1.4501953.8999024.8999023 1.459961 2.1396484 1.459961 3.5097655z" fill="#aec46e"/></g><g><path d="m18.6552849 26.8412952v.050293c0 2.7397461-2.2299805 4.9697266-4.9699717 4.9697266-1.369873 0-2.6101074-.5600586-3.5100098-1.4599609-.2900391-.2900391-.5400391-.6098633-.75-.9697266.5300293.1196289 1.0800781.1899414 1.6401367.1899414 3.0998535 0 5.7897959-1.9799805 7.119874-4.8701172.3000489.6298828.4699708 1.3398437.4699708 2.0898437z" fill="#617f4d"/></g></g><g><path d="m52.3452263 6.9316268v9.4296875c0 1.1801758-.9499512 2.1401367-2.1398926 2.1401367h-38.9599619c-1.1799316 0-2.1401367-.9599609-2.1401367-2.1401367v-9.4296875c0-1.1801758.9602051-2.1401367 2.1401367-2.1401367h38.9599609c1.1899424 0 2.1398936.9599609 2.1398936 2.1401367z" fill="#4269c4"/></g><g><g><path d="m24.4443474 7.8715687c-.4995117-.2666016-1.1489258-.4018555-1.9306641-.4018555h-2.7358398c-.1938477 0-.359375.0698242-.4921875.2080078-.1313477.1357422-.1977539.3022461-.1977539.4941406v7.34375c0 .1928711.0668945.3579102.199707.4902344.1333008.1328125.2978516.199707.4902344.199707.1904297 0 .3564453-.065918.4941406-.1977539.1376953-.1328125.2075195-.2983398.2075195-.4921875v-2.4179688h2.0341797c.78125 0 1.4306641-.1347656 1.9306641-.4013672.5053711-.2700195.8735352-.6225586 1.0947266-1.0473633.2182617-.4194336.3286133-.8793945.3286133-1.3652344s-.1103516-.9458008-.3286133-1.3652344c-.2216797-.4252928-.5898438-.7778319-1.0947266-1.0468748zm.03125 2.4121094c0 .4243164-.1474609.7695313-.4501953 1.0546875-.3017578.2836914-.8466797.4272461-1.6196289.4272461h-1.9262695v-2.9638672h1.9262695c.7729492 0 1.3178711.1435547 1.6191406.4267578.3032226.2856445.4506836.6308593.4506836 1.0551758z" fill="#fff"/></g><g><path d="m27.0620232 7.2338734c-.1313477.1362305-.1977539.3022461-.1977539.4936523v7.7880859c0 .1928711.0668945.3579102.199707.4902344.1333008.1328125.2978516.199707.4897461.199707.190918 0 .3574219-.0664063.4941406-.1977539.1381836-.1328125.2080078-.2988281.2080078-.4921875v-7.7880859c0-.2001953-.0673828-.3691406-.2001953-.5019531-.2617187-.2607422-.7241211-.2719727-.9936523.0083008z" fill="#fff"/></g><g><path d="m33.875988 9.9628773c-.4018555-.2373047-.8974609-.3569336-1.4741211-.3569336-.7207031 0-1.4389648.1489258-2.1347656.4438477-.2641602.1118164-.4033203.3173828-.4033203.59375 0 .1689453.059082.3134766.1757813.4306641.1171875.1162109.2578125.175293.4179688.175293.0537109 0 .1166992-.0092773.2036133-.0317383.2802734-.0932617.5390625-.1640625.769043-.2109375.2241211-.0458984.4863281-.0693359.7792969-.0693359.5112305 0 .8876953.1044922 1.1181641.3100586.2172852.1938477.331543.5209961.3398438.9741211h-1.3017578c-.9326172 0-1.6552734.1875-2.1484375.5585938-.5053711.3803711-.7617188.8969727-.7617188 1.5356445 0 .3867188.0966797.7348633.2875977 1.0341797.1899414.2983398.4506836.5288086.7753906.6850586.3188477.1533203.6699219.2304688 1.0429688.2304688.8232422 0 1.5302734-.2421875 2.1069336-.7197266.0068359.1796875.0737305.3344727.1992188.4599609.265625.2646484.7094727.265625.9838867.0019531.1381836-.1328125.2080078-.2988281.2080078-.4921875v-3.3959961c0-.4379883-.0961914-.8500977-.2861328-1.2250977-.1923832-.3808595-.4946293-.694336-.8974613-.9316407zm-1.90625 5.0429687c-.4160156 0-.7114258-.0761719-.8779297-.2260742-.1640625-.1469727-.2441406-.3383789-.2441406-.5839844 0-.5297852.559082-.7983398 1.6621094-.7983398h1.1582031v.8007813c-.2045898.2226563-.4555664.4130859-.7480469.5668945-.3046875.1596679-.6245117.2407226-.9501953.2407226z" fill="#fff"/></g><g><path d="m42.094738 10.8554554c-.1835938-.3847656-.4521484-.6918945-.7983398-.9140625-.3466797-.2226563-.7597656-.3354492-1.2270508-.3354492-.5039063 0-.9487305.1074219-1.3222656.3193359-.265625.1508789-.5200195.3413086-.7597656.5668945v-.1245117c0-.1918945-.0693359-.3588867-.2060547-.4960938-.2729492-.2734375-.722168-.2729492-.9882813.0024414-.1308594.1362305-.1972656.3027344-.1972656.4936523v5.1479492c0 .1928711.0668945.3579102.199707.4902344.265625.2646484.7094727.2651367.9838867.0019531.1381836-.1328125.2080078-.2988281.2080078-.4921875v-3.5473633c.2602539-.3198242.5380859-.5776367.8266602-.7670898.2895508-.190918.6230469-.2875977.9912109-.2875977.7983398 0 1.1704102.4174805 1.1704102 1.3139648v3.2880859c0 .1928711.0668945.3579102.199707.4902344.1333008.1328125.2978516.199707.4902344.199707.190918 0 .3569336-.0664063.4936523-.1977539.1381836-.1323242.2080078-.2978516.2080078-.4921875v-3.4077148c0-.4526365-.0917968-.8740232-.2724609-1.2524412z" fill="#fff"/></g></g><g><path d="m18.6552849 40.1962738v.050293c0 2.7397461-2.2299805 4.9697266-4.9699717 4.9697266-1.369873 0-2.6101074-.5600586-3.5100098-1.4599609s-1.4599609-2.1401367-1.4599609-3.5097656v-.050293c0-2.7397461 2.2299805-4.9599609 4.9699707-4.9599609 1.369873 0 2.6101084.5600586 3.5100107 1.4501953.8999024.8999022 1.459961 2.1396483 1.459961 3.5097655z" fill="#aec46e"/></g><g><path d="m18.6552849 40.1962738v.050293c0 2.7397461-2.2299805 4.9697266-4.9699717 4.9697266-1.369873 0-2.6101074-.5600586-3.5100098-1.4599609-.2900391-.2900391-.5400391-.6098633-.75-.9697266.5300293.1196289 1.0800781.1899414 1.6401367.1899414 3.0998535 0 5.7897959-1.9799805 7.119874-4.8701172.3000489.6298828.4699708 1.3398437.4699708 2.0898437z" fill="#617f4d"/></g><g><path d="m18.6552849 53.5563812v.050293c0 2.7397461-2.2299805 4.9697266-4.9699717 4.9697266-1.369873 0-2.6101074-.5600586-3.5100098-1.4599609s-1.4599609-2.1401367-1.4599609-3.5097656v-.050293c0-2.7397461 2.2299805-4.9599609 4.9699707-4.9599609 1.369873 0 2.6101084.5600586 3.5100107 1.4501953.8999024.8999022 1.459961 2.1396483 1.459961 3.5097655z" fill="#aec46e"/></g><g><path d="m18.6552849 53.5563812v.050293c0 2.7397461-2.2299805 4.9697266-4.9699717 4.9697266-1.369873 0-2.6101074-.5600586-3.5100098-1.4599609-.2900391-.2900391-.5400391-.6098633-.75-.9697266.5300293.1196289 1.0800781.1899414 1.6401367.1899414 3.0998535 0 5.7897959-1.9799805 7.119874-4.8701172.3000489.6298828.4699708 1.3398437.4699708 2.0898437z" fill="#617f4d"/></g><g><path d="m16.6939964 24.3086891c-.2212753.5282707-.4996986.9990463-.8065214 1.4489136-.2996798.4564896-.6279325.8777828-.9776173 1.284441-.6993675.8063469-1.470171 1.541605-2.3193789 2.1981125l-.1071529.0784054c-.2210999.1714439-.5423841.1355515-.7207985-.0784054-.3139658-.3784313-.5993586-.7850895-.8849249-1.1917477-.2782488-.4212933-.5566721-.8349209-.7779474-1.2990761.4639807.2212753.8779564.4996986 1.2989016.7781219.2284184.1641254.4568367.3209362.6852551.4923801.5636415-.6993675 1.1988916-1.3346195 1.8768291-1.9270077.4068327-.3495102.8277779-.678112 1.2846146-.9847622.4495191-.2996787.9204683-.578102 1.4487409-.7993754z" fill="#fff"/></g><g><path d="m16.6939964 37.6678543c-.2212753.5282745-.4996986.9990501-.8065214 1.4489174-.2996798.4564857-.6279325.8777809-.9776173 1.2844391-.6993675.8063469-1.470171 1.5416069-2.3193789 2.1981125l-.1071529.0784035c-.2210999.1714478-.5423841.1355553-.7207985-.0784035-.3139658-.3784332-.5993586-.7850876-.8849249-1.1917458-.2782488-.4212952-.5566721-.8349228-.7779474-1.2990761.4639807.2212753.8779564.4996986 1.2989016.7781219.2284184.1641235.4568367.3209343.6852551.4923782.5636415-.6993675 1.1988916-1.3346176 1.8768291-1.9270096.4068327-.3495064.8277779-.678112 1.2846146-.9847603.4495191-.2996787.9204683-.578102 1.4487409-.7993773z" fill="#fff"/></g><g><path d="m16.6939964 51.0270233c-.2212753.5282707-.4996986.9990463-.8065214 1.4489136-.2996798.4564896-.6279325.8777847-.9776173 1.2844429-.6993675.8063469-1.470171 1.5416031-2.3193789 2.1981125l-.1071529.0784035c-.2210999.1714439-.5423841.1355515-.7207985-.0784035-.3139658-.3784332-.5993586-.7850914-.8849249-1.1917496-.2782488-.4212914-.5566721-.834919-.7779474-1.2990761.4639807.2212753.8779564.4996986 1.2989016.7781219.2284184.1641273.4568367.3209381.6852551.492382.5636415-.6993675 1.1988916-1.3346214 1.8768291-1.9270096.4068327-.3495102.8277779-.678112 1.2846146-.9847603.4495191-.2996786.9204683-.578102 1.4487409-.7993773z" fill="#fff"/></g><g><g><g><g><g><g><circle cx="53.578" cy="53.932" fill="#b53016" r="12.277"/></g><g><circle cx="53.578" cy="53.932" fill="#fff" r="9.318"/></g><g><circle cx="53.578" cy="53.932" fill="#b53016" r="6.36"/></g><g><circle cx="53.578" cy="53.932" fill="#fff" r="3.402"/></g><g><path d="m63.3020897 39.9453659 1.1145668.3652115-1.8003197.9721985c-.0616913.1265488-.1367378.2429771-.1986732.3701401-.7939529 1.4923744-1.6788177 2.9196434-2.5885849 4.3372154-.9242554 1.3944855-1.8734627 2.7786827-2.9127922 4.1101799-1.0269585 1.3304176-2.116436 2.6419487-3.3383293 3.8314323.6013756-1.6097565 1.3448868-3.1220703 2.1520042-4.6031227.7949829-1.4805832 1.6797981-2.9084473 2.5767479-4.3367729.9360924-1.394928 1.8855438-2.7797394 2.9242859-4.111187.0554543-.0654259.1092339-.1431732.1643906-.2085724-.0031929-.0365448.0067787-.0617638.0157166-.098774l.7227402-2.1679344.3924255.7324104c-.0063324-.0724983-.0016708-.1584244.0282936-.2334976l.7217064-2.1797256.5676689 1.0692711c.2333946-.2514267.4791679-.5039368.7254372-.7440186-.1372299.3766479-.2875748.7425613-.4502945 1.1095581l1.44104.4821739-2.0211449 1.0889053c-.0462189.028389-.1056023.0454559-.1539307.0496826-.030941.0638734-.0505867.1142923-.0829544.1652261z" fill="#3a3a3a"/></g></g></g></g></g></g><g><g><g><g><path d="m8.4020224 51.5857544c-.1805925-.5742111-.2887077-1.1484261-.4004278-1.7230415-.0602641-.2330475-.087894-.7263756.0768824-1.0887642.1531639-.3832092.461894-.7047501.8451033-.9061661.1930065-.0989075.4060345-.164978.6248684-.1946068.2278433-.0252304.3105316-.0236282.4729052-.0368423l.8615208-.0572586c.574214-.0332375 1.1486282-.0416451 1.7228413-.0456505.574214.0028038 1.1486282.0120125 1.7228422.0432472l.8615208.0580597.4731054.0356407c.2192345.0296288.4324617.0960999.6256685.1950073.3840103.2018166.6919403.524559.8463039.9073715.1651783.3627853.1363468.8569145.0768833 1.089962-.1127205.5746155-.2204361 1.1488304-.4026299 1.7230415-.1821957-.5742111-.2899113-1.1484261-.4026318-1.7230415-.0404434-.3367577-.0979042-.4380684-.2204342-.5842247-.1177273-.1229286-.2544727-.2102242-.3990278-.2354507-.0718765-.0120125-.1419516-.0108109-.2090225.0008011l-.3882151.0280304-.8615208.057663c-.574214.0316315-1.1486282.0404434-1.7228422.043644-.574213-.0044022-1.1486273-.0128136-1.7228413-.0456467l-.8615208-.057663c-.124733-.0096092-.3293524-.0192184-.3884153-.0288315-.0672722-.0116119-.1377468-.0128136-.2098246-.0004005-.145155.0256271-.2813005.1137238-.4004278.2366562-.1227312.146553-.1791916.2486649-.2202349.5854225-.1117201.5746154-.219635 1.1488304-.4004287 1.7230415z" fill="#b53016"/></g><g><g><path d="m23.0654411 52.5815277v10.7797852c0 1.25-1.0102539 2.2602539-2.2602539 2.2602539h-16.3999033c-1.25 0-2.2600098-1.0102539-2.2600098-2.2602539v-10.7797852c0-1.25 1.0100098-2.2602539 2.2600098-2.2602539h16.3999023c1.250001 0 2.2602549 1.0102539 2.2602549 2.2602539z" fill="#fbad3e"/></g><g><g><path d="m23.0654411 52.5815277v1.7900391c0 .5898438-.3601074 1.0996094-.9101563 1.2998047l-5.8398438 2.0600586c-.1501465.050293-.3000488.0800781-.460206.0800781h-6.5c-.1599121 0-.3098145-.0297852-.4599609-.0800781l-5.829834-2.0600586c-.5500488-.2001953-.920166-.7099609-.920166-1.2998047v-1.7900391c0-1.25 1.0100098-2.2602539 2.2600098-2.2602539h16.3999023c1.250001 0 2.2602549 1.0102539 2.2602549 2.2602539z" fill="#fa990e"/></g><g><path d="m14.0551863 58.9316254v.7895508c0 .8300781-.6799316 1.5102539-1.5097656 1.5102539-.8200684 0-1.5-.6801758-1.5-1.5102539v-.7895508z" fill="#912010"/></g><g><path d="m15.8051863 58.5414886c-.0297852.2299805-.2299805.4101563-.4599609.4501953-1.9099121.2695313-3.7700195.2597656-5.5898438 0-.2399902-.0400391-.4301758-.2304688-.4702148-.4702148-.0498047-.5-.0598145-.9702148 0-1.4101563.0200195-.25.2402344-.4399414.4902344-.449707 1.869873-.1801758 3.7199707-.1801758 5.5498047-.0102539.25.0200195.4501953.2099609.4799805.4501953.0700682.459961.0700682.9399414-.0000001 1.4399414z" fill="#b53016"/></g></g></g></g></g></g><g><g><g><path d="m52.1156235 32.3480148c.0559082.6074753.5139122 1.0935516 1.1122627 1.2149544.2615204.0561371.513916.1031494.7756653.1405716v1.1309776c0 .4952011.5983467.7571793.953434.401638l1.1312027-1.1026802c.1120491-.1031456.2615242-.1588287.4203529-.1497002 2.0378571.1214066 4.0942001-.0465546 6.1505432-.4582329.5422096-.1026917.9627914-.5417557 1.0469971-1.0839653.4299355-2.5983276.4112206-5.1318436.0093575-7.6178932-.0935631-.5609245-.5422134-1.0095711-1.0937805-1.1031361-3.0656853-.5139141-6.1970978-.5234985-9.3846436-.0095844-.6074791.0935631-1.0748405.5983505-1.1309776 1.2058277-.2056122 2.4303685-.2056122 4.9072896.0095863 7.431223z" fill="#272791"/></g><g><path d="m50.9564896 32.4584084c.055912.6074753.513916 1.0935516 1.1122665 1.2149544.2615204.0561371.5139122.1031494.7756615.1405716v1.1309776c0 .4952011.5983505.7571793.953434.401638l1.1312065-1.1026802c.1120491-.1031456.2615204-.1588287.4203491-.1497002 2.0378609.1214066 4.0942039-.0465546 6.1505432-.4582329.5422134-.1026917.9627914-.5417557 1.0470009-1.0839653.4299355-2.5983276.4112206-5.1318436.0093536-7.6178932-.0935631-.5609245-.5422096-1.0095711-1.0937805-1.1031361-3.0656853-.5139141-6.197094-.5234985-9.3846436-.0095844-.6074753.0935631-1.0748367.5983505-1.1309738 1.2058277-.2056121 2.4303685-.2056121 4.9072895.0095826 7.431223z" fill="#4269c4"/></g><g><path d="m50.7974319 28.7852421c0 1.2149563.0467834 2.4299126.1590576 3.6731663.055912.6074753.513916 1.0935516 1.1122665 1.2149544.2615204.0561371.5139122.1031494.7756615.1405716v1.1309776c0 .4952011.5983505.7571793.953434.401638l1.1312065-1.1026802c.1120491-.1031456.2615204-.1588287.4203491-.1497002 2.0378609.1214066 4.0942039-.0465546 6.1505432-.4582329.5422134-.1026917.9627914-.5417557 1.0470009-1.0839653.0652657-.4208069.1307602-.8411598.1681862-1.2528381-1.2713242.570509-2.7573853.8881683-4.3557243.8881683-3.3183059 0-6.1973228-1.3833713-7.5619812-3.4020595z" fill="#255299"/></g><g><g><path d="m60.7317238 26.0330048c-.6505585-.1992912-1.3011169-.3034782-1.9516754-.3741398-.6505585-.0766125-1.3011169-.1051273-1.9516792-.107008-.6505585.0004711-1.3011169.0292988-1.9516754.105442-.6505585.0705032-1.3011208.1753178-1.9516792.3757057.6505585.2002296 1.3011208.3050442 1.9516792.3755474.6505585.0763016 1.3011169.1049728 1.9516754.1055984.6505623-.0018787 1.3011208-.0303936 1.9516792-.107008.6505584-.0708159 1.3011169-.1750048 1.9516754-.3741377z" fill="#fff"/></g><g><path d="m60.7317238 28.5090256c-.6505585-.1992893-1.3011169-.3034782-1.9516754-.3741379-.6505585-.0766144-1.3011169-.1051292-1.9516792-.1070099-.6505585.0004711-1.3011169.0292988-1.9516754.105442-.6505585.0705032-1.3011208.1753197-1.9516792.3757057.6505585.2002296 1.3011208.3050442 1.9516792.3755474.6505585.0763016 1.3011169.1049728 1.9516754.1055984.6505623-.0018787 1.3011208-.0303936 1.9516792-.107008.6505584-.0708159 1.3011169-.1750048 1.9516754-.3741377z" fill="#fff"/></g><g><path d="m60.7317238 30.9850464c-.6505585-.1992893-1.3011169-.3034782-1.9516754-.3741379-.6505585-.0766144-1.3011169-.1051292-1.9516792-.1070099-.6505585.0004711-1.3011169.0292988-1.9516754.105442-.6505585.0705032-1.3011208.1753197-1.9516792.3757057.6505585.2002296 1.3011208.3050442 1.9516792.3755474.6505585.0763016 1.3011169.1049728 1.9516754.1056004.6505623-.0018806 1.3011208-.0303955 1.9516792-.1070099.6505584-.070816 1.3011169-.1750049 1.9516754-.3741378z" fill="#fff"/></g></g></g></g></g></svg>