<svg id="Layer_1" enable-background="new 0 0 512 512" viewBox="0 0 512 512" xmlns="http://www.w3.org/2000/svg"><g clip-rule="evenodd" fill-rule="evenodd"><path d="m103.732 26.959h342.371l1.195 97.612-41.106-.488v321.513c0 21.693-17.751 39.444-39.444 39.444h-302.46v-418.637c0-21.694 17.749-39.444 39.444-39.444z" fill="#e6e6e6"/><path d="m440.263 26.959h21.665c18.74 0 34.072 21.963 34.072 48.806v59.208h-89.808v-59.208c0-26.843 15.332-48.806 34.071-48.806z" fill="#808080"/><path d="m64.288 485.041h302.46c-24.44 0-44.831-18.207-48.288-41.726h-302.46c3.456 23.519 23.847 41.726 48.288 41.726z" fill="#808080"/><path d="m114.801 308.913c-3.037 0-5.5-2.463-5.5-5.5s2.463-5.5 5.5-5.5h2.11c3.037 0 5.5 2.463 5.5 5.5s-2.463 5.5-5.5 5.5zm0 103.501c-3.037 0-5.5-2.463-5.5-5.5s2.463-5.5 5.5-5.5h2.11c3.037 0 5.5 2.463 5.5 5.5s-2.463 5.5-5.5 5.5zm27.625 0c-3.037 0-5.5-2.463-5.5-5.5s2.463-5.5 5.5-5.5h217.875c3.037 0 5.5 2.463 5.5 5.5s-2.463 5.5-5.5 5.5zm-27.625-34.5c-3.037 0-5.5-2.463-5.5-5.5s2.463-5.5 5.5-5.5h2.11c3.037 0 5.5 2.463 5.5 5.5s-2.463 5.5-5.5 5.5zm27.625 0c-3.037 0-5.5-2.463-5.5-5.5s2.463-5.5 5.5-5.5h222.865c3.037 0 5.5 2.463 5.5 5.5s-2.463 5.5-5.5 5.5zm-27.625-34.5c-3.037 0-5.5-2.463-5.5-5.5s2.463-5.5 5.5-5.5h2.11c3.037 0 5.5 2.463 5.5 5.5s-2.463 5.5-5.5 5.5zm27.625 0c-3.037 0-5.5-2.463-5.5-5.5s2.463-5.5 5.5-5.5h202.024c3.037 0 5.5 2.463 5.5 5.5s-2.463 5.5-5.5 5.5zm0-34.501c-3.037 0-5.5-2.463-5.5-5.5s2.463-5.5 5.5-5.5h192.298c3.037 0 5.5 2.463 5.5 5.5s-2.463 5.5-5.5 5.5z" fill="#5a5a5a"/><path d="m330.302 118.62 25.892 67.31c1.08 2.824-.334 5.988-3.158 7.068-.644.246-1.305.362-1.955.362v.025h-59.787c-3.037 0-5.5-2.463-5.5-5.5 0-.888.211-1.727.585-2.47l25.694-66.794h18.229zm12.798 63.765-21.913-56.965-21.913 56.965z" fill="#172d3a"/><path d="m166.014 118.62 25.892 67.31c1.08 2.824-.334 5.988-3.158 7.068-.644.246-1.305.362-1.955.362v.025h-59.787c-3.037 0-5.5-2.463-5.5-5.5 0-.888.211-1.727.585-2.47l25.694-66.794h18.229zm12.798 63.765-21.912-56.965-21.913 56.965z" fill="#172d3a"/><g fill="#d1a333"><path d="m348.472 98.886v29.643h-218.857v-29.643h14.779c.644 6.339 5.997 11.286 12.506 11.286s11.863-4.947 12.507-11.286h139.275c.644 6.339 5.997 11.286 12.506 11.286s11.863-4.947 12.506-11.286z"/><path d="m192.964 250.597h92.16c2.829 0 5.143 2.314 5.143 5.142v12.286c0 2.828-2.314 5.143-5.143 5.143h-92.16c-2.829 0-5.143-2.314-5.143-5.143v-12.286c0-2.828 2.314-5.142 5.143-5.142z"/><path d="m226.472 72.458h25.143v132.214l13.598 26.07-13.598 6.473v5.526c-8.569 0-16.574 0-25.143 0v-5.526l-13.598-6.473 13.598-26.069z"/></g><ellipse cx="239.044" cy="111.457" fill="#b58a1f" rx="24" ry="23.999" transform="matrix(.926 -.377 .377 .926 -24.383 98.384)"/><path d="m223.962 67.165h30.163c4.397 0 7.994 3.597 7.994 7.994v4.305c0 4.397-3.597 7.994-7.994 7.994h-30.163c-4.397 0-7.994-3.597-7.994-7.994v-4.305c0-4.397 3.597-7.994 7.994-7.994z" fill="#d1a333"/><path d="m184.185 192.599c0 15.069-12.216 27.285-27.285 27.285s-27.285-12.216-27.285-27.285z" fill="#d1a333"/><path d="m348.472 192.599c0 15.069-12.216 27.285-27.285 27.285s-27.285-12.216-27.285-27.285z" fill="#d1a333"/><path d="m128.601 175.541h56.597c5.336 0 9.701 4.365 9.701 9.701 0 5.336-4.365 9.701-9.701 9.701h-56.597c-5.336 0-9.701-4.365-9.701-9.701 0-5.336 4.365-9.701 9.701-9.701z" fill="#b58a1f"/><path d="m292.889 175.541h56.597c5.336 0 9.701 4.365 9.701 9.701 0 5.336-4.365 9.701-9.701 9.701h-56.597c-5.336 0-9.701-4.365-9.701-9.701 0-5.336 4.365-9.701 9.701-9.701z" fill="#b58a1f"/><path d="m206.759 228.026h64.57c2.829 0 5.143 2.314 5.143 5.143v12.286c0 2.829-2.314 5.143-5.143 5.143h-64.57c-2.829 0-5.143-2.314-5.143-5.143v-12.286c0-2.829 2.314-5.143 5.143-5.143z" fill="#b58a1f"/><path d="m478.129 300.08c-5.947 46.13-33.378 85.529-71.937 107.835-38.559-22.306-65.989-61.704-71.937-107.835l71.937-41.767z" fill="#256187"/><circle cx="406.192" cy="333.115" fill="#b9e0ff" r="30.79"/><path d="m437.476 300.725c2.148-2.147 5.63-2.147 7.777 0s2.147 5.63 0 7.777l-36.753 36.753c-2.147 2.148-5.63 2.148-7.777 0l-10.005-10.005c-2.147-2.148-2.147-5.63 0-7.777 2.147-2.148 5.63-2.148 7.777 0l6.117 6.117z" fill="#fff"/></g></svg>