<svg id="Capa_1" enable-background="new 0 0 512 512" height="512" viewBox="0 0 512 512" width="512" xmlns="http://www.w3.org/2000/svg"><g><path d="m512 256c0 55.6-17.725 107.061-47.833 149.039-1.419 1.978-9.268.451-10.741 2.387-12.638 16.604-27.175 31.186-43.426 44.255-1.857 1.494-42.954 22.197-62.183 30.46-2.845 1.223 3.453 11.566.556 12.687-28.655 11.09-59.804 17.172-92.373 17.172-141.385 0-256-114.615-256-256s114.615-256 256-256 256 114.615 256 256z" fill="#84b017"/><path d="m424.051 364.407v75.188c-4.529 4.172-9.214 8.196-14.051 12.086-1.857 1.494 2.583 6.877.684 8.319-18.89 14.345-39.833 26.127-62.312 34.827h-159.861c-4.418 0-8-3.582-8-8v-45.34h-76.602c-4.418 0-8-3.582-8-8v-122.42c0-4.418 3.582-8 8-8h95.505c4.418 0 8 3.582 8 8v45.34h208.637c4.418 0 8 3.582 8 8z" fill="#71892e"/><path d="m464.167 75v330.039c-14.981 20.888-33.028 39.427-53.483 54.961h-255.684c-2.761 0-5-2.239-5-5v-380c0-2.761 2.239-5 5-5h304.167c2.761 0 5 2.239 5 5z" fill="#ffc14f"/><path d="m180.833 460h-25.833c-2.761 0-5-2.239-5-5v-380c0-2.761 2.239-5 5-5h25.833c-2.761 0-5 2.239-5 5v380c0 2.761 2.239 5 5 5z" fill="#ffb52d"/><path d="m390 105c0-2.761 2.239-5 5-5h40c2.761 0 5 2.239 5 5s-2.239 5-5 5h-40c-2.761 0-5-2.239-5-5zm45 65h-40c-2.761 0-5 2.239-5 5s2.239 5 5 5h40c2.761 0 5-2.239 5-5s-2.239-5-5-5zm0 150h-40c-2.761 0-5 2.239-5 5s2.239 5 5 5h40c2.761 0 5-2.239 5-5s-2.239-5-5-5zm0 20h-40c-2.761 0-5 2.239-5 5s2.239 5 5 5h40c2.761 0 5-2.239 5-5s-2.239-5-5-5zm0 50h-20c-2.761 0-5 2.239-5 5s2.239 5 5 5h20c2.761 0 5-2.239 5-5s-2.239-5-5-5zm0-200h-80c-2.761 0-5 2.239-5 5s2.239 5 5 5h80c2.761 0 5-2.239 5-5s-2.239-5-5-5zm0 110h-80c-2.761 0-5 2.239-5 5s2.239 5 5 5h80c2.761 0 5-2.239 5-5s-2.239-5-5-5zm0-180h-30c-2.761 0-5 2.239-5 5s2.239 5 5 5h30c2.761 0 5-2.239 5-5s-2.239-5-5-5z" fill="#f29500"/><path d="m370.167 410h-304.167c-2.761 0-5-2.239-5-5v-380c0-2.761 2.239-5 5-5h304.167c2.761 0 5 2.239 5 5v380c0 2.761-2.239 5-5 5z" fill="#dce6eb"/><path d="m90.833 410h-24.833c-2.761 0-5-2.239-5-5v-380c0-2.761 2.239-5 5-5h24.833c-2.761 0-5 2.239-5 5v380c0 2.761 2.239 5 5 5z" fill="#c8d2dc"/><path d="m193.083 205c0-2.761 2.239-5 5-5h40c2.761 0 5 2.239 5 5s-2.239 5-5 5h-40c-2.761 0-5-2.239-5-5zm88.084 15h-126.167c-2.761 0-5 2.239-5 5s2.239 5 5 5h126.167c2.761 0 5-2.239 5-5s-2.239-5-5-5z" fill="#909ba6"/><path d="m180 375c0 2.761-2.239 5-5 5h-63.333c-2.761 0-5-2.239-5-5s2.239-5 5-5h63.333c2.761 0 5 2.239 5 5zm-5-25h-90c-2.761 0-5 2.239-5 5s2.239 5 5 5h90c2.761 0 5-2.239 5-5s-2.239-5-5-5zm74.75-210h-63.333c-2.761 0-5 2.239-5 5s2.239 5 5 5h63.333c2.761 0 5-2.239 5-5s-2.239-5-5-5zm0 20h-63.333c-2.761 0-5 2.239-5 5s2.239 5 5 5h63.333c2.761 0 5-2.239 5-5s-2.239-5-5-5zm-76.667-30h90c2.761 0 5-2.239 5-5s-2.239-5-5-5h-90c-2.761 0-5 2.239-5 5s2.239 5 5 5zm76.667 140h-63.333c-2.761 0-5 2.239-5 5s2.239 5 5 5h63.333c2.761 0 5-2.239 5-5s-2.239-5-5-5zm61.417-20h-186.167c-2.761 0-5 2.239-5 5s2.239 5 5 5h186.167c2.761 0 5-2.239 5-5s-2.239-5-5-5z" fill="#a2abb8"/><path d="m243.083 75c0 13.807-11.193 25-25 25s-25-11.193-25-25 11.193-25 25-25 25 11.193 25 25z" fill="#ffc14f"/><path d="m231.542 75c0 7.433-6.026 13.458-13.458 13.458s-13.459-6.025-13.459-13.458 6.025-13.458 13.458-13.458 13.459 6.025 13.459 13.458z" fill="#ff9f22"/><path d="m345 370c0 2.761-2.238 5-5 5h-37.128c-2.651 0-5.306-.627-7.678-1.813l-9.587-4.793c-2.765-1.382-6.089-.841-8.273 1.343l-5.195 5.195c-3.346 3.346-7.743 5.02-12.139 5.02-4.397 0-8.792-1.673-12.14-5.02-1.308-1.308-2.39-2.81-3.216-4.463l-8.234-16.466c-1.24-2.481-3.637-3.962-6.411-3.962s-5.17 1.481-6.411 3.962l-9.117 18.234c-1.235 2.469-4.238 3.47-6.708 2.236-2.47-1.235-3.471-4.238-2.236-6.708l9.117-18.234c2.927-5.854 8.811-9.49 15.355-9.49s12.428 3.636 15.355 9.49l8.234 16.467c.345.691.796 1.317 1.342 1.863 2.793 2.793 7.341 2.795 10.137 0l5.195-5.195c5.233-5.232 13.195-6.524 19.816-3.216l9.587 4.793c.99.495 2.099.757 3.205.757h37.13c2.762 0 5 2.239 5 5z" fill="#19305c"/><path d="m330.223 311.17c1.953 1.953 1.953 5.118 0 7.071l-28.284 28.284c-1.953 1.953-5.118 1.953-7.071 0-1.953-1.953-1.953-5.118 0-7.071l28.284-28.284c1.953-1.952 5.119-1.952 7.071 0zm176.777-176.777c-5.858-5.858-15.355-5.858-21.213 0l-84.853 84.853c-5.858 5.858-5.858 15.355 0 21.213s15.355 5.858 21.213 0l84.853-84.852c5.858-5.858 5.858-15.356 0-21.214z" fill="#203e76"/><path d="m316.081 325.312c-5.858-5.858-5.858-15.355 0-21.213l91.924-91.924c5.858-5.858 15.355-5.858 21.213 0 5.858 5.858 5.858 15.355 0 21.213l-91.924 91.924c-5.858 5.858-15.355 5.858-21.213 0z" fill="#2e5aac"/><path d="m511.94 177.59c-.246 1.578-1.23 2.943-2.65 3.674l-23.901 12.313c-12.763 6.576-21.331 19.021-22.917 33.293-.305 2.745-2.777 4.722-5.522 4.417-1.173-.131-2.206-.657-2.981-1.432-1.037-1.037-1.61-2.519-1.436-4.09 1.956-17.608 12.527-32.964 28.276-41.077l17.812-9.176-27.683-27.684c-1.953-1.953-1.953-5.118 0-7.071s5.118-1.953 7.071 0l32.527 32.527c1.129 1.129 1.651 2.73 1.404 4.306z" fill="#4172cc"/></g></svg>