<svg id="Layer_1" enable-background="new 0 0 53 53" viewBox="0 0 53 53" xmlns="http://www.w3.org/2000/svg"><g><path d="m10.071228 13.0166931c.8619995 0 1.6329956-.3759766 2.1759644-.9649658l9.7739868 5.6789551c-.1480103.3550415-.2299805.7380371-.2299805 1.1360474 0 1.6380005 1.3369751 2.9699707 2.9799805 2.9699707 1.6380005 0 2.9700317-1.3319702 2.9700317-2.9699707 0-.6370239-.2050171-1.25-.5720215-1.7520142l11.0189819-8.0950317c.4720459.3140259 1.0390015.4990234 1.6490479.4990234 1.6380005 0 2.9699707-1.3319702 2.9699707-2.9699707 0-1.6430054-1.3319702-2.9800415-2.9699707-2.9800415-1.6430054 0-2.9800415 1.3370361-2.9800415 2.9800415 0 .664978.2280273 1.2719727.598999 1.7679443l-11.0219727 8.0980225c-.492981-.3380127-1.0679932-.5280151-1.6630249-.5280151-.8579712 0-1.6430054.3800049-2.2009888 1.007019l-9.7709961-5.677002c.1550293-.3590088.2420044-.7539673.2420044-1.1699829 0-1.6430054-1.3320313-2.9800415-2.9699707-2.9800415-1.6430054 0-2.9800415 1.3370361-2.9800415 2.9800415.0000001 1.6380005 1.3370363 2.9699707 2.9800416 2.9699707m29.7659912-8.447998c1.0869751 0 1.9699707.8890381 1.9699707 1.9800415 0 1.0859985-.8829956 1.9699707-1.9699707 1.9699707-1.092041 0-1.9800415-.8839722-1.9800415-1.9699707 0-1.0910034.8880005-1.9800415 1.9800415-1.9800415m-16.7340088 13.2369995c.3670044-.5759888.9899902-.9190063 1.6679688-.9190063.4850464 0 .9550171.184021 1.3259888.5209961.4150391.3740234.644043.8920288.644043 1.4590454 0 1.0859985-.8840332 1.9699707-1.9700317 1.9699707-1.09198 0-1.9799805-.8839722-1.9799805-1.9699707-.0000001-.3840333.1069946-.7490235.3120116-1.0610352m-13.0319824-9.7390137c1.0859985 0 1.9699707.8880005 1.9699707 1.9800415 0 1.0859985-.8839722 1.9699707-1.9699707 1.9699707-1.092041 0-1.9800415-.8839722-1.9800415-1.9699707 0-1.092041.8880005-1.9800415 1.9800415-1.9800415" fill="#f83908"/><path d="m21.2689209 46.7673035 5 2.6079712c.0719604.0370483.1519775.0560303.2310181.0560303.0789795 0 .1589966-.0189819.230957-.0560303l5-2.6079712c.1650391-.0869751.269043-.257019.269043-.4440308v-14.8709717c0-.0020142-.0020142-.0029907-.0020142-.0050049s.0020142-.0029907.0020142-.0050049c-.0010376-.0209961-.0150146-.0379639-.0180054-.0579834-.0100098-.0670166-.0240479-.1329956-.0580444-.1900024-.0169678-.0269775-.0449829-.0440063-.0669556-.0690308-.0320435-.0349731-.0570068-.0759888-.0980225-.1009521-.0089722-.0050049-.0189819-.0030518-.0269775-.0079956-.0079956-.0040283-.0110474-.0130005-.019043-.0160522l-5-2.3589478c-.1339722-.0630493-.2919922-.0630493-.4259644 0l-5 2.3589478c-.0079956.0030518-.0110474.0120239-.019043.0160522-.0079956.0049438-.0179443.0029907-.0269775.0079956-.0410156.0249634-.065979.065979-.0980225.1009521-.0219727.0250244-.0499878.0420532-.0669556.0690308-.0339966.0570068-.0480347.1229858-.0580444.1900024-.0029907.0200195-.0169678.0369873-.0179443.0579834 0 .0020142.0019531.0029907.0019531.0050049s-.0019531.0029907-.0019531.0050049v14.8709717c.0000001.1870117.1039429.3570557.268982.4440308m.7310181-14.4910279 4 2.0859985v13.7440186l-4-2.0859985zm5 15.8300171v-13.7440185l4-2.0859985v13.7440186zm-.5-18.4600219 3.875 1.8280029-3.875 2.0210571-3.875-2.0210571z"/><path d="m6.65625 46.7673035 5 2.6079712c.0719604.0370483.1519775.0560303.2310181.0560303.0789795 0 .1589966-.0189819.230957-.0560303l5-2.6079712c.1650391-.0869751.269043-.257019.269043-.4440308v-21.8709717c0-.0020142-.0020142-.0029907-.0020142-.0050049s.0020142-.0029907.0020142-.0050049c-.0010376-.0209961-.0150146-.0379639-.0180054-.0579834-.0100098-.0670166-.0240479-.1329956-.0580444-.1900024-.0169678-.0269775-.0449829-.0440063-.0669556-.0690308-.0320435-.0349731-.0570068-.0759888-.0980225-.1009521-.0089722-.0050049-.0189819-.0030518-.0280151-.0079956-.006958-.0040283-.0100098-.0130005-.0180054-.0160522l-5-2.3589478c-.1339722-.0630493-.2919922-.0630493-.4259644 0l-5 2.3589478c-.0079955.0030517-.0110473.0120239-.0180053.0160522-.0090332.0049438-.0189819.0029907-.0280151.0079956-.0410156.0249634-.065979.065979-.0980225.1009521-.0219727.0250244-.0499878.0420532-.0669556.0690308-.0339966.0570068-.0480347.1229858-.0580444.1900024-.0029907.0200195-.0169678.0369873-.0179443.0579834 0 .0020142.0019531.0029907.0019531.0050049s-.0019531.0029907-.0019531.0050049v10.9400024c0 .276001.223999.5.5.5.2769775 0 .5-.223999.5-.5v-10.1160278l4 2.0859985v20.7440186l-4-2.0859985v-7.3619995c0-.2769775-.2230225-.5-.5-.5-.276001 0-.5.2230225-.5.5v7.664978c0 .1870117.1039428.3570557.2689819.4440308m5.7310181 1.3389892v-20.7440185l4-2.0859985v20.7440186zm-.5-25.4600219 3.875 1.8280029-3.875 2.0210571-3.875-2.0210571z"/><path d="m35.8817139 46.7673035 5 2.6079712c.0719604.0370483.1519775.0560303.2310181.0560303.0789795 0 .1589966-.0189819.230957-.0560303l5-2.6079712c.1650391-.0869751.269043-.257019.269043-.4440308v-17.742981c0-.2769775-.2240601-.5-.5-.5-.276001 0-.5.2230225-.5.5v17.4400024l-4 2.0859985v-28.7440184l4-2.0859985v7.6540527c0 .2769775.223999.5.5.5.2759399 0 .5-.2230225.5-.5v-8.4780274c0-.0020142-.0010376-.0029907-.0010376-.0050049s.0010376-.0029907.0010376-.0050049c0-.0209961-.0150146-.0379639-.0180054-.0579834-.0090332-.0670166-.0230103-.1329956-.0580444-.1900024-.0169678-.0269775-.0440063-.0440063-.065979-.0690308-.0319824-.0349731-.0570068-.0759888-.098999-.1009521-.0079956-.0050049-.0180054-.0030518-.0269775-.0079956-.007019-.0040283-.0110474-.0130005-.019043-.0160522l-5-2.3589478c-.1339722-.0630493-.2919922-.0630493-.4259644 0l-5 2.3589478c-.0079956.0030518-.0110474.0120239-.0180054.0160522-.0090332.0049438-.0189819.0029907-.0280151.0079956-.0410156.0249634-.065979.065979-.0980225.1009521-.0219727.0250244-.0499878.0420532-.0669556.0690308-.0339966.0570068-.0480347.1229858-.0580444.1900024-.0029907.0200195-.0169678.0369873-.0179443.0579834 0 .0020142.0019531.0029907.0019531.0050049s-.0019531.0029907-.0019531.0050049v18.7059937c0 .276001.223999.5.5.5.2769775 0 .5-.223999.5-.5v-17.882019l4 2.0859985v28.7440186l-4-2.0859985v-7.1779785c0-.276001-.2230225-.5-.5-.5-.276001 0-.5.223999-.5.5v7.480957c-.0000001.1870116.1039428.3570556.2689819.4440307m5.231018-32.1210327 3.875 1.8280029-3.875 2.0210571-3.875-2.0210571z"/></g></svg>