<svg height="512" viewBox="0 0 128 128" width="512" xmlns="http://www.w3.org/2000/svg"><g><path d="m57.362 26.54-37.262 64.535a7.666 7.666 0 0 0 6.639 11.5h74.518a7.666 7.666 0 0 0 6.639-11.5l-37.258-64.535a7.665 7.665 0 0 0 -13.276 0z" fill="#ee404c"/><g fill="#fff7ed"><rect height="29.377" rx="4.333" width="9.638" x="59.181" y="46.444"/><circle cx="64" cy="87.428" r="4.819"/></g><g fill="#1e2a54"><path d="m109.413 90.2-37.259-64.535a9.416 9.416 0 0 0 -16.308 0l-11.492 19.9a1.75 1.75 0 0 0 3.032 1.75l11.491-19.9a5.916 5.916 0 0 1 10.246 0l37.259 64.535a5.916 5.916 0 0 1 -5.123 8.873h-74.518a5.916 5.916 0 0 1 -5.123-8.873l14.21-24.612a1.75 1.75 0 0 0 -3.032-1.75l-14.209 24.612a9.416 9.416 0 0 0 8.154 14.123h74.518a9.416 9.416 0 0 0 8.154-14.123z"/><path d="m38.979 58.379a1.749 1.749 0 0 0 2.391-.641l.922-1.6a1.75 1.75 0 1 0 -3.031-1.75l-.922 1.6a1.751 1.751 0 0 0 .64 2.391z"/><path d="m64.485 77.571a6.091 6.091 0 0 0 6.084-6.084v-20.71a6.09 6.09 0 0 0 -6.084-6.083h-.97a6.09 6.09 0 0 0 -6.084 6.083v20.71a6.091 6.091 0 0 0 6.084 6.084zm-3.554-6.084v-20.71a2.586 2.586 0 0 1 2.584-2.583h.97a2.586 2.586 0 0 1 2.584 2.583v20.71a2.587 2.587 0 0 1 -2.584 2.584h-.97a2.587 2.587 0 0 1 -2.584-2.584z"/><path d="m64 94a6.569 6.569 0 1 0 -6.569-6.569 6.577 6.577 0 0 0 6.569 6.569zm0-9.638a3.069 3.069 0 1 1 -3.069 3.069 3.073 3.073 0 0 1 3.069-3.072z"/></g></g></svg>