<svg id="Layer_1" enable-background="new 0 0 512 458.3" height="512" viewBox="0 0 512 458.3" width="512" xmlns="http://www.w3.org/2000/svg" xmlns:xlink="http://www.w3.org/1999/xlink"><linearGradient id="SVGID_1_" gradientUnits="userSpaceOnUse" x1="93.375" x2="93.375" y1="304.888" y2="443.609"><stop offset="0" stop-color="#ff9c9c"/><stop offset="1" stop-color="#ff2c2c"/></linearGradient><linearGradient id="SVGID_2_" gradientUnits="userSpaceOnUse" x1="201.792" x2="201.792" y1="261.402" y2="445.525"><stop offset="0" stop-color="#73cdff"/><stop offset=".6729" stop-color="#3598ff"/><stop offset="1" stop-color="#1c83ff"/></linearGradient><linearGradient id="SVGID_3_" gradientUnits="userSpaceOnUse" x1="310.208" x2="310.208" y1="208.378" y2="446.181"><stop offset="0" stop-color="#fff5a9"/><stop offset=".5637" stop-color="#ffd852"/><stop offset="1" stop-color="#ffc312"/></linearGradient><linearGradient id="SVGID_4_" gradientUnits="userSpaceOnUse" x1="418.625" x2="418.625" y1="161.91" y2="436.099"><stop offset="0" stop-color="#8af9d7"/><stop offset=".58" stop-color="#5fe0ba"/><stop offset="1" stop-color="#44d1a8"/></linearGradient><linearGradient id="lg1"><stop offset="0" stop-color="#8888ba"/><stop offset="1" stop-color="#49458a"/></linearGradient><linearGradient id="SVGID_5_" gradientUnits="userSpaceOnUse" x1="256" x2="256" xlink:href="#lg1" y1="433.059" y2="458.34"/><linearGradient id="SVGID_6_" gradientUnits="userSpaceOnUse" x1="251.294" x2="251.294" xlink:href="#lg1" y1="-29.069" y2="258.635"/><g><g><path d="m128.7 450.6h-70.7v-134c0-6 4.9-10.9 10.9-10.9h48.9c6 0 10.9 4.9 10.9 10.9z" fill="url(#SVGID_1_)"/><path d="m237.1 450.6h-70.7v-178.3c0-6 4.9-10.9 10.9-10.9h48.9c6 0 10.9 4.9 10.9 10.9z" fill="url(#SVGID_2_)"/><path d="m345.6 450.6h-70.7v-228.1c0-6 4.9-10.9 10.9-10.9h48.9c6 0 10.9 4.9 10.9 10.9z" fill="url(#SVGID_3_)"/><path d="m454 450.6h-70.7v-277c0-6 4.9-10.9 10.9-10.9h48.9c6 0 10.9 4.9 10.9 10.9z" fill="url(#SVGID_4_)"/><path d="m504.2 458.3h-496.4c-4.3 0-7.8-3.5-7.8-7.8s3.5-7.8 7.8-7.8h496.5c4.3 0 7.8 3.5 7.8 7.8s-3.6 7.8-7.9 7.8z" fill="url(#SVGID_5_)"/></g><path d="m502.5 7c-.3-2.5-1.8-4.7-3.9-6-.1 0-.2-.1-.2-.1-1.1-.6-2.3-.9-3.6-.9h-57.8c-4.3 0-7.8 3.5-7.8 7.8s3.5 7.8 7.8 7.8h39.1l-139.4 139.4-41.8-41.8c-3-3-7.9-3-11 0l-125.7 125.8-58.3-58.3c-3-3-7.9-3-11 0l-86.6 86.5c-3 3-3 7.9 0 11 1.5 1.5 3.5 2.3 5.5 2.3s4-.8 5.5-2.3l81.1-81.1 58.3 58.3c3 3 7.9 3 11 0l125.8-125.8 41.8 41.8c3 3 7.9 3 11 0l144.8-144.9v34.2c0 4.3 3.5 7.8 7.8 7.8s7.8-3.5 7.8-7.8v-52.9c-.1-.3-.1-.6-.2-.8z" fill="url(#SVGID_6_)"/></g></svg>